<?xml version="1.0" encoding="UTF-8" standalone="no"?>
<!-- Created with Inkscape (http://www.inkscape.org/) -->

<svg
   width="979"
   height="768"
   id="svg2"
   version="1.0"
   xmlns="http://www.w3.org/2000/svg"
   xmlns:svg="http://www.w3.org/2000/svg"
   xmlns:rdf="http://www.w3.org/1999/02/22-rdf-syntax-ns#"
   xmlns:cc="http://creativecommons.org/ns#"
   xmlns:dc="http://purl.org/dc/elements/1.1/">
  <defs
     id="defs4" />
  <metadata
     id="metadata7">
    <rdf:RDF>
      <cc:Work
         rdf:about="">
        <dc:format>image/svg+xml</dc:format>
        <dc:type
           rdf:resource="http://purl.org/dc/dcmitype/StillImage" />
      </cc:Work>
    </rdf:RDF>
  </metadata>
  <g
     id="layer1"
     transform="translate(1126.643,597.3521)">
    <rect
       style="fill:#9ec7f3;fill-opacity:0"
       id="rect1953"
       width="986.86011"
       height="774.96375"
       x="-3.9792745"
       y="-2.9844561"
       transform="translate(-1126.643,-597.3521)" />
    <path
       style="fill:#ffffd0;fill-opacity:1;fill-rule:evenodd;stroke:none;stroke-width:1px;stroke-linecap:butt;stroke-linejoin:miter;stroke-opacity:1"
       d="m 137.28497,674.48705 9.94819,-7.95855 -7.95855,-9.94819 -0.99482,-11.93782 3.97928,-15.9171 v -12.93264 l -0.99482,-11.93783 v -15.9171 l -0.99482,-6.96373 -1.98964,-7.95855 -6.96373,-7.95855 -9.94818,-0.99481 -9.94819,0.99481 h -6.96373 l 2.98445,9.94819 4.9741,10.94301 7.95855,5.96891 -2.98446,-10.94301 1.98964,-4.97409 -3.97928,-4.97409 -1.98963,-9.94819 -6.96373,-10.943 -9.948191,-10.94301 1.989638,-2.98446 -1.989638,-1.98963 -6.96373,9.94818 5.968912,9.94819 3.979274,7.95855 -12.932642,-10.94301 -17.906736,-6.96373 8.953368,-28.84974 3.979275,-10.943 0.994818,-13.92746 5.968912,-6.96373 4.974093,1.98963 14.922277,-11.93782 0.99482,-6.96373 -2.98445,-3.97928 v -4.97409 l -5.96892,-5.96891 -1.989633,-5.96891 v -3.97928 l -7.95855,-8.95337 -7.958549,-4.97409 -3.979274,-1.98964 v 16.91192 10.94301 l 3.979274,18.90155 10.943005,1.98964 -3.979274,3.97927 -9.948187,6.96373 -1.989637,-10.943 -1.989637,-10.94301 v -7.95855 l -2.984456,-11.93782 v -4.97409 l 0.994818,-18.90156 2.984456,-16.91192 v -8.95336 l -0.994818,-12.93265 0.994818,-4.97409 11.937824,1.98964 2.984456,7.95855 6.963731,-10.94301 -7.95855,-6.96373 -5.968912,-5.96891 4.974094,-1.98964 -8.953368,-8.95337 -1.989637,16.91192 -2.984456,3.97928 -1.989638,-48.74612 1.989638,-9.94818 4.974093,-10.94301 8.953368,-9.94819 -2.984456,15.9171 7.958549,5.96891 2.984456,6.96373 9.948182,-1.98963 9.94819,5.96891 9.94819,3.97927 0.99482,-6.96373 5.96891,13.92746 5.96891,-1.98963 0.99482,-7.95855 v -4.9741 l -3.97928,3.97928 -0.99481,15.9171 9.94818,2.98445 7.95855,-3.97927 -1.98964,-5.96891 v -3.97928 l -1.98963,-6.96373 -5.96892,-8.95337 4.9741,-1.98963 c 0,0 1.98964,3.97927 4.97409,-0.99482 2.98446,-4.97409 0.99482,-10.94301 4.97409,-10.94301 3.97928,0 14.92228,-5.96891 14.92228,-5.96891 l -7.95854,-3.97927 6.96373,-9.94819 v -8.95337 l 9.94818,-0.99482 6.96373,-3.97927 v -5.96891 l -10.943,0.99482 3.97927,7.95854 9.94819,0.99482 4.97409,8.95337 3.97928,11.93783 -7.95855,14.92228 c 0,0 -4.9741,-1.98964 -4.9741,2.98445 0,4.97409 2.98446,6.96373 2.98446,6.96373 l 1.98964,8.95337 4.97409,-7.95855 2.98446,-4.97409 1.98963,-4.9741 3.97928,4.9741 h 6.96373 l -0.99482,4.97409 -0.99482,8.95337 7.95855,6.96373 4.97409,-3.97928 h 4.9741 l -0.99482,-8.95336 -3.97928,2.98445 h -3.97927 l 0.99482,-8.95337 -0.99482,-9.94818 -1.98964,-6.96373 -1.98964,-1.98964 -7.95854,2.98446 -5.96892,2.98445 0.99482,-10.943 5.96891,-3.97928 0.99482,-5.96891 -4.97409,-5.96891 -1.98964,-8.95337 5.96891,-6.96373 -5.96891,-3.97927 1.98964,-8.95337 5.96891,-8.95337 9.94819,-5.96891 11.93782,-3.97928 8.95337,0.99482 8.95337,0.99482 -0.99482,8.95337 9.94819,-6.96373 3.97927,-5.96891 2.98446,-6.96374 16.91191,2.98446 8.95337,-6.96373 -1.98964,-5.96891 -10.943,-5.96891 -3.97928,7.95855 -6.96373,3.97927 -6.96373,-3.97927 -9.94818,1.98963 -3.97928,5.96891 -5.96891,-3.97927 -5.96891,2.98446 -4.9741,1.98963 -10.943,5.96892 -10.94301,4.97409 -7.95854,-10.94301 -9.94819,2.98446 -5.96891,1.98964 -13.92746,3.97927 -7.95855,-5.96891 -1.98964,6.96373 -5.96891,-0.99482 -0.99482,10.94301 -11.93783,0.99482 -8.95336,11.93782 2.98445,13.92746 2.98446,6.96373 -9.94819,7.95855 -2.98445,5.96891 8.95336,3.97928 6.96373,11.93782 8.95337,-3.97927 3.97928,-5.96892 8.95337,-9.94818 0.99481,-10.94301 -4.97409,-9.94818 0.99482,-10.94301 -1.98964,-2.98446 2.98446,-7.95854 8.95337,-4.9741 0.99481,11.93783 -2.98445,9.94818 -5.96891,-7.95855 -12.93265,1.98964 -8.95336,0.99482 -10.94301,7.95855 -10.943,10.943 2.98445,10.94301 v 10.943 l 5.96891,10.94301 c 0,0 3.97928,3.97927 9.94819,4.97409 5.96891,0.99482 -3.97927,-6.96373 -3.97927,-6.96373 l -1.98964,-5.96891 -8.95337,3.97927 3.97927,7.95855 3.97928,12.93265 -8.95337,-6.96373 -6.96373,-9.94819 2.98446,-0.99482 -1.98964,-7.95855 c 0,0 0,6.96373 -4.97409,5.96891 -4.9741,-0.99482 -13.927465,-4.97409 -13.927465,-4.97409 l -0.994818,-8.95337 -2.984456,-11.93782 -2.984456,2.98445 v 6.96373 h -5.968912 l 1.989637,-6.96373 c 0,0 -4.974093,-3.97927 -1.989637,-7.95855 2.984456,-3.97927 17.906737,-26.8601 17.906737,-26.8601 l 11.93782,-22.88083 1.98964,-8.95337 3.97927,2.98446 10.94301,-12.93264 h 11.93782 l 6.96373,-0.99482 14.92228,1.98964 8.95337,-13.92746 9.94819,1.98963 h 2.98445 l 8.95337,3.97928 h 23.87565 l 12.93264,-5.96891 16.91192,-15.9171 11.93782,-16.91192 10.94301,-22.88083 5.96891,-13.92746 c 0,0 5.96891,-9.94819 10.94301,-11.93782 4.97409,-1.98964 5.96891,-11.937828 5.96891,-11.937828 l 2.98445,-3.979275 h 20.89119 l 13.92747,-2.984456 13.92746,-10.943005 15.9171,-11.937824 8.95336,-9.948186 12.93265,4.974093 -10.94301,3.979275 -9.94819,12.932642 -11.93782,15.917099 6.96373,11.937825 9.94819,15.9171 -0.99482,12.93264 1.98964,19.89637 -0.99482,21.88601 -7.95855,9.94819 c 0,0 -9.94819,11.93782 -9.94819,15.9171 0,3.97927 1.98964,16.91191 -1.98964,16.91191 -3.97927,0 -6.96373,13.92747 -6.96373,13.92747 0,0 -3.97927,17.90673 -4.97409,22.88083 -0.99482,4.97409 -4.97409,25.86528 0,23.87564 4.97409,-1.98963 7.95855,11.93783 7.95855,11.93783 l -24.87047,4.97409 24.87047,-0.99482 3.97927,12.93264 -5.96891,8.95337 6.96373,8.95337 c 0,0 8.95337,7.95855 12.93265,6.96373 3.97927,-0.99482 17.90673,-3.97927 17.90673,-3.97927 l 22.88083,1.98963 5.96891,5.96891 7.95855,14.92228 v 14.92228 l -5.96891,13.92747 c 0,0 -13.92746,9.94818 -13.92746,14.92228 0,4.97409 -1.98964,16.91191 -1.98964,16.91191 h -7.95855 L 384,403.89637 l 0.99482,-4.97409 -4.97409,0.99482 -10.94301,7.95855 h -9.94819 l -4.97409,5.96891 -4.97409,-10.94301 10.943,-6.96373 3.97928,-8.95336 -5.96891,-6.96373 c 0,0 -5.96892,0 -5.96892,4.97409 0,4.97409 -9.94818,10.943 -9.94818,10.943 l -9.94819,16.91192 6.96373,23.87565 -1.98964,16.91192 2.98446,9.94818 -10.94301,7.95855 1.98964,7.95855 -4.97409,2.98446 c 0,0 -3.97928,-18.90156 -3.97928,-14.92228 0,3.97927 0,13.92746 -3.97927,11.93782 -3.97928,-1.98964 -14.92228,-8.95337 -14.92228,-8.95337 l -2.98446,6.96373 c 0,0 -9.94818,-3.97927 -9.94818,0 0,3.97928 11.93782,7.95855 11.93782,7.95855 l 8.95337,-0.99482 -1.98964,11.93783 4.97409,5.96891 -7.95854,3.97927 0.99481,8.95337 -14.92228,-3.97927 -8.95336,7.95855 -13.92747,-11.93783 -10.943,3.97928 8.95337,5.96891 7.95855,10.943 12.93264,0.99482 -5.96891,5.96892 -7.95855,9.94818 -4.9741,5.96891 -8.95336,3.97928 4.97409,8.95337 c 0,0 -7.95855,-0.99482 -7.95855,7.95855 0,8.95336 1.98964,14.92228 1.98964,14.92228 l 2.98445,8.95336 -5.96891,6.96373 3.97928,-2.98445 15.9171,6.96373 -5.96892,10.943 -9.94818,9.94819 c 0,0 -12.93265,-7.95855 -12.93265,-2.98446 0,4.9741 -5.96891,11.93783 -5.96891,11.93783 l 9.94819,6.96373 -13.92746,11.93782 -0.99482,6.96373 14.92228,-5.96891 17.90673,6.96373 8.95337,7.95855 10.94301,5.96891 -7.95855,-6.96373 0.99482,-7.95855 -15.9171,-5.96891 -2.98446,-1.98964 c 0,0 -2.98445,0 0,-3.97927 2.98446,-3.97928 15.9171,-4.97409 15.9171,-4.97409 l 12.93264,13.92746 7.95855,3.97927 6.96373,7.95855 4.9741,13.92746 -4.9741,8.95337 -9.94818,-7.95855 -10.94301,-0.99482 -8.95337,-4.97409 -5.96891,3.97927 4.9741,11.93783 -13.92747,-3.97928 v -9.94818 l 2.98446,-2.98446 -6.96373,2.98446 c 0,0 -6.96373,3.97927 -6.96373,7.95855 0,3.97927 -4.97409,3.97927 -4.97409,3.97927 l -11.93783,8.95337 -0.99482,-5.96891 -9.94818,6.96373 -13.92746,-3.97928 -0.99482,-5.96891 -14.92228,-2.98446 -13.92746,-6.96373 -10.94301,-0.99482 -13.92746,-1.98963 -4.97409,4.97409 -10.94301,-4.97409 z"
       id="path1933"
       transform="translate(-1126.643,-597.3521)" />
    <circle
       style="fill:#000000"
       id="path545-5"
       cx="-799.65411"
       cy="-183.71109"
       r="5" />
    <path
       id="path2844"
       d="m 139.27461,681.45078 -1.98964,-6.96373 9.94819,-7.95855 -7.95855,-9.94819 -0.99482,-11.93782 3.97928,-15.9171 v -12.93264 l -0.99482,-11.93783 v -15.9171 l -0.99482,-6.96373 -1.98964,-7.95855 -6.96373,-7.95855 -9.94818,-0.99481 -9.94819,0.99481 h -6.96373 l 2.98445,9.94819 4.9741,10.94301 7.95855,5.96891 -2.98446,-10.94301 1.98964,-4.97409 -3.97928,-4.97409 -1.98963,-9.94819 -6.96373,-10.943 -9.948191,-10.94301 1.989638,-2.98446 -1.989638,-1.98963 -6.96373,9.94818 5.968912,9.94819 3.979274,7.95855 -12.932642,-10.94301 -17.906736,-6.96373 8.953368,-28.84974 3.979275,-10.943 0.994818,-13.92746 5.968912,-6.96373 4.974093,1.98963 14.922277,-11.93782 0.99482,-6.96373 -2.98445,-3.97928 v -4.97409 l -5.96892,-5.96891 -1.989633,-5.96891 v -3.97928 l -7.95855,-8.95337 -7.958549,-4.97409 -3.979274,-1.98964 v 16.91192 10.94301 l 3.979274,18.90155 10.943005,1.98964 -3.979274,3.97927 -9.948187,6.96373 -1.989637,-10.943 -1.989637,-10.94301 v -7.95855 l -2.984456,-11.93782 v -4.97409 l 0.994818,-18.90156 2.984456,-16.91192 v -8.95336 l -0.994818,-12.93265 0.994818,-4.97409 11.937824,1.98964 2.984456,7.95855 6.963731,-10.94301 -7.95855,-6.96373 -5.968912,-5.96891 4.974094,-1.98964 -8.953368,-8.95337 -1.989637,16.91192 -2.984456,3.97928 -1.989638,-48.74612 1.989638,-9.94818 4.974093,-10.94301 8.953368,-9.94819 -2.984456,15.9171 7.958549,5.96891 2.984456,6.96373 9.948182,-1.98963 9.94819,5.96891 9.94819,3.97927 0.99482,-6.96373 5.96891,13.92746 5.96891,-1.98963 0.99482,-7.95855 v -4.9741 l -3.97928,3.97928 -0.99481,15.9171 9.94818,2.98445 7.95855,-3.97927 -1.98964,-5.96891 v -3.97928 l -1.98963,-6.96373 -5.96892,-8.95337 4.9741,-1.98963 c 0,0 1.98964,3.97927 4.97409,-0.99482 2.98446,-4.97409 0.99482,-10.94301 4.97409,-10.94301 3.97928,0 14.92228,-5.96891 14.92228,-5.96891 l -7.95854,-3.97927 6.96373,-9.94819 v -8.95337 l 9.94818,-0.99482 6.96373,-3.97927 v -5.96891 l -10.943,0.99482 3.97927,7.95854 9.94819,0.99482 4.97409,8.95337 3.97928,11.93783 -7.95855,14.92228 c 0,0 -4.9741,-1.98964 -4.9741,2.98445 0,4.97409 2.98446,6.96373 2.98446,6.96373 l 1.98964,8.95337 4.97409,-7.95855 2.98446,-4.97409 1.98963,-4.9741 3.97928,4.9741 h 6.96373 l -0.99482,4.97409 -0.99482,8.95337 7.95855,6.96373 4.97409,-3.97928 h 4.9741 l -0.99482,-8.95336 -3.97928,2.98445 h -3.97927 l 0.99482,-8.95337 -0.99482,-9.94818 -1.98964,-6.96373 -1.98964,-1.98964 -7.95854,2.98446 -5.96892,2.98445 0.99482,-10.943 5.96891,-3.97928 0.99482,-5.96891 -4.97409,-5.96891 -1.98964,-8.95337 5.96891,-6.96373 -5.96891,-3.97927 1.98964,-8.95337 5.96891,-8.95337 9.94819,-5.96891 11.93782,-3.97928 8.95337,0.99482 8.95337,0.99482 -0.99482,8.95337 9.94819,-6.96373 3.97927,-5.96891 2.98446,-6.96374 16.91191,2.98446 8.95337,-6.96373 -1.98964,-5.96891 -10.943,-5.96891 -3.97928,7.95855 -6.96373,3.97927 -6.96373,-3.97927 -9.94818,1.98963 -3.97928,5.96891 -5.96891,-3.97927 -5.96891,2.98446 -4.9741,1.98963 -10.943,5.96892 -10.94301,4.97409 -7.95854,-10.94301 -9.94819,2.98446 -5.96891,1.98964 -13.92746,3.97927 -7.95855,-5.96891 -1.98964,6.96373 -5.96891,-0.99482 -0.99482,10.94301 -11.93783,0.99482 -8.95336,11.93782 2.98445,13.92746 2.98446,6.96373 -9.94819,7.95855 -2.98445,5.96891 8.95336,3.97928 6.96373,11.93782 8.95337,-3.97927 3.97928,-5.96892 8.95337,-9.94818 0.99481,-10.94301 -4.97409,-9.94818 0.99482,-10.94301 -1.98964,-2.98446 2.98446,-7.95854 8.95337,-4.9741 0.99481,11.93783 -2.98445,9.94818 -5.96891,-7.95855 -12.93265,1.98964 -8.95336,0.99482 -10.94301,7.95855 -10.943,10.943 2.98445,10.94301 v 10.943 l 5.96891,10.94301 c 0,0 3.97928,3.97927 9.94819,4.97409 5.96891,0.99482 -3.97927,-6.96373 -3.97927,-6.96373 l -1.98964,-5.96891 -8.95337,3.97927 3.97927,7.95855 3.97928,12.93265 -8.95337,-6.96373 -6.96373,-9.94819 2.98446,-0.99482 -1.98964,-7.95855 c 0,0 0,6.96373 -4.97409,5.96891 -4.9741,-0.99482 -13.927465,-4.97409 -13.927465,-4.97409 l -0.994818,-8.95337 -2.984456,-11.93782 -2.984456,2.98445 v 6.96373 h -5.968912 l 1.989637,-6.96373 c 0,0 -4.974093,-3.97927 -1.989637,-7.95855 2.984456,-3.97927 17.906737,-26.8601 17.906737,-26.8601 l 11.93782,-22.88083 1.98964,-8.95337 3.97927,2.98446 10.94301,-12.93264 h 11.93782 l 6.96373,-0.99482 14.92228,1.98964 8.95337,-13.92746 9.94819,1.98963 h 2.98445 l 8.95337,3.97928 h 23.87565 l 12.93264,-5.96891 16.91192,-15.9171 11.93782,-16.91192 10.94301,-22.88083 5.96891,-13.92746 c 0,0 5.96891,-9.94819 10.94301,-11.93782 4.97409,-1.98964 5.96891,-11.937828 5.96891,-11.937828 l 2.98445,-3.979275 h 20.89119 l 13.92747,-2.984456 13.92746,-10.943005 15.9171,-11.937824 8.95336,-9.948186 12.93265,4.974093 -10.94301,3.979275 -9.94819,12.932642 -11.93782,15.917099 6.96373,11.937825 9.94819,15.9171 -0.99482,12.93264 1.98964,19.89637 -0.99482,21.88601 -7.95855,9.94819 c 0,0 -9.94819,11.93782 -9.94819,15.9171 0,3.97927 1.98964,16.91191 -1.98964,16.91191 -3.97927,0 -6.96373,13.92747 -6.96373,13.92747 0,0 -3.97927,17.90673 -4.97409,22.88083 -0.99482,4.97409 -4.97409,25.86528 0,23.87564 4.97409,-1.98963 7.95855,11.93783 7.95855,11.93783 l -24.87047,4.97409 24.87047,-0.99482 3.97927,12.93264 -5.96891,8.95337 6.96373,8.95337 c 0,0 8.95337,7.95855 12.93265,6.96373 3.97927,-0.99482 17.90673,-3.97927 17.90673,-3.97927 l 22.88083,1.98963 5.96891,5.96891 7.95855,14.92228 v 14.92228 l -5.96891,13.92747 c 0,0 -13.92746,9.94818 -13.92746,14.92228 0,4.97409 -1.98964,16.91191 -1.98964,16.91191 h -7.95855 L 384,403.89637 l 0.99482,-4.97409 -4.97409,0.99482 -10.94301,7.95855 h -9.94819 l -4.97409,5.96891 -4.97409,-10.94301 10.943,-6.96373 3.97928,-8.95336 -5.96891,-6.96373 c 0,0 -5.96892,0 -5.96892,4.97409 0,4.97409 -9.94818,10.943 -9.94818,10.943 l -9.94819,16.91192 6.96373,23.87565 -1.98964,16.91192 2.98446,9.94818 -10.94301,7.95855 1.98964,7.95855 -4.97409,2.98446 c 0,0 -3.97928,-18.90156 -3.97928,-14.92228 0,3.97927 0,13.92746 -3.97927,11.93782 -3.97928,-1.98964 -14.92228,-8.95337 -14.92228,-8.95337 l -2.98446,6.96373 c 0,0 -9.94818,-3.97927 -9.94818,0 0,3.97928 11.93782,7.95855 11.93782,7.95855 l 8.95337,-0.99482 -1.98964,11.93783 4.97409,5.96891 -7.95854,3.97927 0.99481,8.95337 -14.92228,-3.97927 -8.95336,7.95855 -13.92747,-11.93783 -10.943,3.97928 8.95337,5.96891 7.95855,10.943 12.93264,0.99482 -5.96891,5.96892 -7.95855,9.94818 -4.9741,5.96891 -8.95336,3.97928 4.97409,8.95337 c 0,0 -7.95855,-0.99482 -7.95855,7.95855 0,8.95336 1.98964,14.92228 1.98964,14.92228 l 2.98445,8.95336 -5.96891,6.96373 3.97928,-2.98445 15.9171,6.96373 -5.96892,10.943 -9.94818,9.94819 c 0,0 -12.93265,-7.95855 -12.93265,-2.98446 0,4.9741 -5.96891,11.93783 -5.96891,11.93783 l 9.94819,6.96373 -13.92746,11.93782 -0.99482,6.96373 14.92228,-5.96891 17.90673,6.96373 8.95337,7.95855 10.94301,5.96891 -7.95855,-6.96373 0.99482,-7.95855 -15.9171,-5.96891 -2.98446,-1.98964 c 0,0 -2.98445,0 0,-3.97927 2.98446,-3.97928 15.9171,-4.97409 15.9171,-4.97409 l 12.93264,13.92746 7.95855,3.97927 6.96373,7.95855 4.9741,13.92746 -4.9741,8.95337 -9.94818,-7.95855 -10.94301,-0.99482 -8.95337,-4.97409 -5.96891,3.97927 4.9741,11.93783 -13.92747,-3.97928 v -9.94818 l 2.98446,-2.98446 -6.96373,2.98446"
       style="fill:none;fill-rule:evenodd;stroke:#0000ff;stroke-width:1px;stroke-linecap:butt;stroke-linejoin:miter;stroke-opacity:1"
       transform="translate(-1126.643,-597.3521)" />
    <path
       style="fill:#f7d3aa;fill-opacity:1;fill-rule:evenodd;stroke:none;stroke-width:2;stroke-linecap:butt;stroke-linejoin:miter;stroke-miterlimit:4;stroke-dasharray:none;stroke-opacity:1"
       d="m 180.31275,770.34511 v -5.21135 l -3.38737,-3.64795 -6.51419,-3.90851 -1.30284,-5.73249 -4.16908,-2.60567 -3.12681,2.60567 -3.12681,-4.16908 1.82397,-1.30284 0.7817,-2.34511 0.26057,-4.95078 -2.34511,-1.5634 -1.5634,-2.34511 -5.99306,-3.12681 0.52114,-6.77476 -2.08454,-0.52114 -0.26057,4.16909 -1.30284,3.90851 -2.08454,0.26057 -2.86624,3.64794 -1.56341,3.64795 -2.34511,2.08454 -6.51419,-0.26057 -2.3451,2.34511 -5.21135,0.52113 c 0,0 0,-3.90851 0,-4.95078 0,-1.04227 4.95078,0 4.95078,0 l 1.04227,-2.60567 5.47192,0.26056 3.90851,0.78171 0.7817,-5.47192 2.34511,-1.82398 3.64795,-2.60567 -2.08454,-7.29589 2.86624,-4.95079 -2.34511,-3.38738 0.78171,-3.64794 -3.90852,-1.82397 -3.12681,-5.21136 -4.95078,-4.69021 -2.08454,-8.59873 -3.90852,0.52113 -5.73248,1.82398 -6.51419,1.82397 -6.77476,2.34511 -6.25362,-5.47192 -0.7817,1.5634 -5.211354,3.64795 1.042271,6.77476 v 2.3451 l -0.781703,5.21136 1.302838,2.60567 -3.908514,7.29589 0.260568,-11.72554 -0.260568,-25.01448 c 0,0 2.345108,-3.12681 3.387379,-3.38738 1.04227,-0.26057 2.605673,-9.11987 2.605673,-9.11987 l 4.69022,-8.85929 0.26057,-7.2959 4.69021,-2.08454 v 3.90852 l 3.90852,2.86624 -1.82398,3.38738 -7.03532,5.47192 c 0,0 -1.56341,15.37348 -1.56341,16.67632 0,1.30284 2.86625,1.04227 2.86625,1.04227 l 1.82397,0.26057 0.7817,2.60568 9.641,0.26056 2.34511,-2.86624 5.99305,0.26057 10.42271,1.04227 0.91323,-5.51271 10.94301,4.97409 4.97409,-4.97409 13.92746,1.98963 10.94301,0.99482 13.92746,6.96373 14.92228,2.98446 0.99482,5.96891 13.92746,3.97928 9.94818,-6.96373 0.99482,5.96891 11.93783,-8.95337 c 0,0 4.97409,0 4.97409,-3.97927 0,-3.97928 6.96373,-7.95855 6.96373,-7.95855 l -1.2121,8.4264 -0.7817,5.47192 4.95078,4.16908 9.90157,1.56341 4.95078,2.60567 8.59873,6.51419 4.42965,4.95078 5.47192,-3.64794 0.26057,-4.95078 7.03532,3.38737 0.78171,4.42965 2.08454,5.21135 0.26056,4.95079 4.95079,1.30283 2.08454,7.55646 -2.86624,3.12682 v 4.16908 l 2.60567,2.08454 -3.12681,2.08454 0.7817,8.85929 v 4.69022 l -2.60567,2.60568 -0.26057,4.69021 -2.60568,1.56341 0.26057,2.86624"
       id="path4618"
       transform="translate(-1126.643,-597.3521)" />
    <path
       transform="translate(-1126.643,-597.3521)"
       id="path5505"
       d="m 258.65285,682.4456 -1.2121,8.4264 -0.7817,5.47192 4.95078,4.16908 9.90157,1.56341 4.95078,2.60567 8.59873,6.51419 4.42965,4.95078 5.47192,-3.64794 0.26057,-4.95078 7.03532,3.38737 0.78171,4.42965 2.08454,5.21135 0.26056,4.95079 4.95079,1.30283 2.08454,7.55646 -2.86624,3.12682 v 4.16908 l 2.60567,2.08454 -3.12681,2.08454 0.7817,8.85929 v 4.69022 l -2.60567,2.60568 -0.26057,4.69021 -2.60568,1.56341 0.26057,2.86624 m -124.29073,-0.7817 v -5.21135 l -3.38737,-3.64795 -6.51419,-3.90851 -1.30284,-5.73249 -4.16908,-2.60567 -3.12681,2.60567 -3.12681,-4.16908 1.82397,-1.30284 0.7817,-2.34511 0.26057,-4.95078 -2.34511,-1.5634 -1.5634,-2.34511 -5.99306,-3.12681 0.52114,-6.77476 -2.08454,-0.52114 -0.26057,4.16909 -1.30284,3.90851 -2.08454,0.26057 -2.86624,3.64794 -1.56341,3.64795 -2.34511,2.08454 -6.51419,-0.26057 -2.3451,2.34511 -5.21135,0.52113 c 0,0 0,-3.90851 0,-4.95078 0,-1.04227 4.95078,0 4.95078,0 l 1.04227,-2.60567 5.47192,0.26056 3.90851,0.78171 0.7817,-5.47192 2.34511,-1.82398 3.64795,-2.60567 -2.08454,-7.29589 2.86624,-4.95079 -2.34511,-3.38738 0.78171,-3.64794 -3.90852,-1.82397 -3.12681,-5.21136 -4.95078,-4.69021 -2.08454,-8.59873 -3.90852,0.52113 -5.73248,1.82398 -6.51419,1.82397 -6.77476,2.34511 -6.25362,-5.47192 -0.7817,1.5634 -5.211354,3.64795 1.042271,6.77476 v 2.3451 l -0.781703,5.21136 1.302838,2.60567 -3.908514,7.29589 0.260568,-11.72554 -0.260568,-25.01448 c 0,0 2.345108,-3.12681 3.387379,-3.38738 1.04227,-0.26057 2.605673,-9.11987 2.605673,-9.11987 l 4.69022,-8.85929 0.26057,-7.2959 4.69021,-2.08454 v 3.90852 l 3.90852,2.86624 -1.82398,3.38738 -7.03532,5.47192 c 0,0 -1.56341,15.37348 -1.56341,16.67632 0,1.30284 2.86625,1.04227 2.86625,1.04227 l 1.82397,0.26057 0.7817,2.60568 9.641,0.26056 2.34511,-2.86624 5.99305,0.26057 10.42271,1.04227 0.91323,-5.51271"
       style="fill:none;fill-opacity:1;fill-rule:evenodd;stroke:#0000ff;stroke-width:1;stroke-linecap:butt;stroke-linejoin:miter;stroke-miterlimit:4;stroke-dasharray:none;stroke-opacity:1" />
    <path
       transform="translate(-1126.643,-597.3521)"
       id="path3731"
       d="m 258.65285,682.4456 c 0,0 -6.96373,3.97927 -6.96373,7.95855 0,3.97927 -4.97409,3.97927 -4.97409,3.97927 l -11.93783,8.95337 -0.99482,-5.96891 -9.94818,6.96373 -13.92746,-3.97928 -0.99482,-5.96891 -14.92228,-2.98446 -13.92746,-6.96373 -10.94301,-0.99482 -13.92746,-1.98963 -4.97409,4.97409 -10.94301,-4.97409"
       style="fill:none;fill-rule:evenodd;stroke:#a08070;stroke-width:2;stroke-linecap:butt;stroke-linejoin:miter;stroke-miterlimit:4;stroke-dasharray:none;stroke-opacity:1" />
    <path
       style="fill:#f7d3aa;fill-opacity:1;fill-rule:evenodd;stroke:#0000ff;stroke-width:1px;stroke-linecap:butt;stroke-linejoin:miter;stroke-opacity:1"
       d="m 178.19658,769.963 v -3.27167 l -1.85394,-2.39921 -6.21616,-0.21812 -4.47128,0.21812 -2.29016,2.29016 0.21811,3.38072"
       id="path6393"
       transform="translate(-1126.643,-597.3521)" />
    <path
       style="fill:#f7d3aa;fill-opacity:1;fill-rule:evenodd;stroke:#0000ff;stroke-width:1px;stroke-linecap:butt;stroke-linejoin:miter;stroke-opacity:1"
       d="m 163.4741,756.33107 -5.34372,0.43622 -1.19961,2.83544 5.23466,0.65433 2.29016,-1.63583 z"
       id="path6395"
       transform="translate(-1126.643,-597.3521)" />
    <path
       style="fill:#f7d3aa;fill-opacity:1;fill-rule:evenodd;stroke:#0000ff;stroke-width:1px;stroke-linecap:butt;stroke-linejoin:miter;stroke-opacity:1"
       d="m 131.95708,769.74489 -0.10906,-4.68939 5.45277,-4.03505 5.23466,-2.18111 4.03505,-2.18111 2.39922,3.926 -2.18111,2.61733 -0.65433,2.39922 v 3.59883"
       id="path6397"
       transform="translate(-1126.643,-597.3521)" />
    <path
       style="fill:#ffd0d0;fill-opacity:1;fill-rule:evenodd;stroke:#0000ff;stroke-width:1px;stroke-linecap:butt;stroke-linejoin:miter;stroke-opacity:1"
       d="m 119.30664,769.09055 0.10906,-7.63388 -2.07205,-1.63583 c 0,0 0,-4.03505 0,-4.58033 0,-0.54527 0.32716,-3.27166 -0.43622,-3.27166 -0.76339,0 -2.18111,1.09056 -2.18111,1.09056 l -1.63584,1.74488 v 3.16261 l 2.50828,1.52678 0.10906,5.34371 0.21811,4.36222"
       id="path6399"
       transform="translate(-1126.643,-597.3521)" />
    <path
       style="fill:#f7d3aa;fill-opacity:1;fill-rule:evenodd;stroke:#0000ff;stroke-width:1px;stroke-linecap:butt;stroke-linejoin:miter;stroke-opacity:1"
       d="m 123.77792,752.40507 6.43427,-0.10905 2.61733,3.48977 c 0,0 0.10905,2.18111 -0.43622,2.07205 -0.54528,-0.10905 -3.926,-0.10905 -3.926,-0.10905 l -4.68938,-2.72639 z"
       id="path6401"
       transform="translate(-1126.643,-597.3521)" />
    <path
       style="fill:#f7d3aa;fill-opacity:1;fill-rule:evenodd;stroke:#0000ff;stroke-width:1px;stroke-linecap:butt;stroke-linejoin:miter;stroke-opacity:1"
       d="m 149.84217,738.22787 -2.50828,0.76338 -0.10905,3.05356 2.94449,0.32716 1.41772,-2.61733 z"
       id="path6403"
       transform="translate(-1126.643,-597.3521)" />
    <path
       style="fill:#f7d3aa;fill-opacity:1;fill-rule:evenodd;stroke:#0000ff;stroke-width:1px;stroke-linecap:butt;stroke-linejoin:miter;stroke-opacity:1"
       d="m 104.58416,724.15972 -4.58033,3.38071 -2.944494,2.61733 -1.635831,4.58033 1.41772,2.61733 3.053552,4.25316 1.963003,4.58033 4.68938,-0.10905 2.9445,-4.14411 -2.83545,-3.81694 -1.41772,-4.68938 -1.85394,-3.27167 -0.10905,-1.96299 1.63583,-2.18111 z"
       id="path6405"
       transform="translate(-1126.643,-597.3521)" />
    <path
       style="fill:#f7d3aa;fill-opacity:1;fill-rule:evenodd;stroke:#0000ff;stroke-width:1px;stroke-linecap:butt;stroke-linejoin:miter;stroke-opacity:1"
       d="m 116.14404,715.21717 -3.48978,0.9815 -2.50827,3.27166 c 0,0 -0.54528,3.38072 -0.54528,3.81694 0,0.43622 0.54528,4.36222 0.54528,4.36222 l 3.05355,0.9815 1.74489,1.963 4.90749,1.85394 h 9.37877 l 3.81694,-2.50828 c 0,0 -0.43622,-4.47127 0,-4.68938 0.43622,-0.21811 2.07205,-2.18111 2.07205,-2.61733 0,-0.43622 -1.963,-2.83544 -1.963,-3.27166 0,-0.43623 -3.59882,-4.47128 -3.59882,-4.47128 l -7.63388,-0.21811 z"
       id="path6407"
       transform="translate(-1126.643,-597.3521)" />
    <path
       style="fill:#ffffd0;fill-opacity:1;fill-rule:evenodd;stroke:#0000ff;stroke-width:1px;stroke-linecap:butt;stroke-linejoin:miter;stroke-opacity:1"
       d="m 124.74794,618.00016 -4.26793,2.48962 c 0,0 0.26675,3.73444 0.0889,4.0901 -0.17783,0.35566 -2.22288,2.66746 -2.3118,3.73444 -0.0889,1.06698 0.17783,14.75991 0.17783,14.75991 l 1.42265,2.84528 3.28986,4.71251 c 0,0 3.28986,-0.35566 3.28986,-0.80024 0,-0.44457 3.5566,-2.66745 3.73443,-3.28986 0.17783,-0.62241 0.44458,-2.48962 0.0889,-2.9342 -0.35566,-0.44457 -2.13397,-1.42264 -2.04505,-1.86722 0.0889,-0.44457 1.68939,-3.73443 1.68939,-3.73443 0,0 -2.3118,-3.55661 -2.40071,-3.91227 -0.0889,-0.35566 2.57854,-2.57854 2.57854,-2.57854 v -4.44575 c 0,0 2.66745,-1.77831 2.66745,-2.13397 0,-0.35566 0.17783,-4.17901 -0.88915,-4.44576 -1.06698,-0.26674 -4.0901,-0.0889 -4.80142,-0.35566 -0.71132,-0.26674 -2.31179,-2.13396 -2.31179,-2.13396 z"
       id="path7294"
       transform="translate(-1126.643,-597.3521)" />
    <path
       style="fill:#ffffd0;fill-opacity:1;fill-rule:evenodd;stroke:#0000ff;stroke-width:1px;stroke-linecap:butt;stroke-linejoin:miter;stroke-opacity:1"
       d="m 128.83804,599.95039 4.17901,-0.17783 -0.80024,2.84528 -3.28986,4.26793 -3.02311,-1.06698 1.60047,-3.55661 z"
       id="path7296"
       transform="translate(-1126.643,-597.3521)" />
    <path
       style="fill:#ffffd0;fill-opacity:1;fill-rule:evenodd;stroke:#0000ff;stroke-width:1px;stroke-linecap:butt;stroke-linejoin:miter;stroke-opacity:1"
       d="m 411.72348,167.27128 3.7164,-6.37096 7.9637,-4.24731 7.96371,-2.65457 2.12365,-1.59274 11.14918,0.53092 2.92003,-3.18549 5.30914,2.65457 0.26545,7.69825 -5.84005,-3.18548 -5.84005,2.38911 -4.51276,1.8582 2.92002,5.30913 -5.04368,3.98185 -2.65456,7.96371 c 0,0 -3.18549,2.12365 -3.98186,0.26545 -0.79637,-1.85819 -3.98185,-5.84004 -3.98185,-5.84004 l -5.57459,-1.32729 -1.06183,-2.12365 z"
       id="path7298"
       transform="translate(-1126.643,-597.3521)" />
    <path
       style="fill:#ffffd0;fill-opacity:1;fill-rule:evenodd;stroke:#0000ff;stroke-width:1px;stroke-linecap:butt;stroke-linejoin:miter;stroke-opacity:1"
       d="m 491.09506,289.11595 5.04368,-2.92003 h 7.96371 l 4.51276,-1.59274 -1.32728,3.7164 -4.77823,4.24731 -4.2473,4.77822 -5.04368,-3.7164 -0.26546,-2.38911 z"
       id="path7300"
       transform="translate(-1126.643,-597.3521)" />
    <path
       style="fill:#ffffd0;fill-opacity:1;fill-rule:evenodd;stroke:#0000ff;stroke-width:1px;stroke-linecap:butt;stroke-linejoin:miter;stroke-opacity:1"
       d="m 373.89589,444.92491 -2.42004,5.24342 v 10.48683 l 3.63006,1.21002 4.0334,6.45343 -2.0167,4.84008 -1.61336,4.84008 -3.22672,1.21001 c 0,0 -1.21002,11.69686 -1.21002,13.31021 0,1.61336 2.0167,6.85678 2.0167,6.85678 l 8.87347,-0.80668 2.0167,-5.24342 v -7.66345 l 4.43674,-6.45344 1.61336,-8.06679 -4.84008,1.21002 -2.82338,-4.43674 1.21002,-4.03339 -5.64675,-5.64676 -2.82338,-4.43674 z"
       id="path7302"
       transform="translate(-1126.643,-597.3521)" />
    <path
       style="fill:#ffffd0;fill-opacity:1;fill-rule:evenodd;stroke:#0000ff;stroke-width:1px;stroke-linecap:butt;stroke-linejoin:miter;stroke-opacity:1"
       d="m 438.0269,465.49523 8.06679,-0.40333 4.43674,6.85677 6.0501,7.66345 -0.80668,2.82338 -6.45344,-5.24341 -2.82338,-0.80668 -4.43673,-6.0501 -3.22672,-0.40334 z"
       id="path7304"
       transform="translate(-1126.643,-597.3521)" />
    <path
       style="fill:#ffffd0;fill-opacity:1;fill-rule:evenodd;stroke:#0000ff;stroke-width:1px;stroke-linecap:butt;stroke-linejoin:miter;stroke-opacity:1"
       d="m 344.45209,491.71231 -2.0167,4.43674 -2.01669,4.43674 h -6.0501 l 6.85678,3.22672 4.43673,2.42003 c 0,0 2.0167,-2.42003 2.0167,-4.43673 0,-2.0167 0,-6.45344 0,-6.45344 z"
       id="path7306"
       transform="translate(-1126.643,-597.3521)" />
    <path
       style="fill:#ffffd0;fill-opacity:1;fill-rule:evenodd;stroke:#0000ff;stroke-width:1px;stroke-linecap:butt;stroke-linejoin:miter;stroke-opacity:1"
       d="m 337.99866,531.2396 -6.85678,3.22672 -7.66345,6.0501 -4.84008,0.40334 -6.45343,2.82337 -5.24342,3.63006 -4.84007,3.63006 -5.64676,4.0334 -6.45344,-3.22672 -2.82337,-7.66346 h -4.0334 l -1.61336,2.0167 h -2.82338 l -0.40334,5.64676 -3.63005,7.66345 2.0167,5.24342 6.85677,1.21002 0.40334,7.26011 -3.22672,3.22672 4.0334,1.61336 2.82338,2.42004 -6.45344,2.42003 -0.80668,4.0334 5.64676,3.22672 4.43673,-1.61336 4.0334,2.82338 -5.24341,3.63005 4.43673,4.0334 -1.21002,6.85678 1.21002,6.05009 10.08349,7.26012 2.42004,5.24341 7.66346,0.40334 6.45343,-2.42004 6.0501,10.48683 v 4.84008 l -5.24342,-0.40334 -5.24342,10.89017 12.1002,-1.21002 6.85677,1.21002 -1.21002,-3.63005 12.10019,5.64675 c 0,0 7.66346,-1.21002 7.26012,0.40334 -0.40334,1.61336 2.01669,3.63006 2.01669,3.63006 l 10.48684,1.21002 5.24341,2.42004 4.43674,-0.40334 7.66345,-5.64676 6.0501,3.63006 -3.63006,4.84007 -0.80668,5.64676 7.26012,-2.0167 -0.40334,6.85678 c 0,0 -2.0167,1.21001 -4.84008,1.61335 -2.82338,0.40334 -6.0501,1.61336 -7.66345,1.61336 -1.61336,0 -6.45344,-4.43673 -6.45344,-4.43673 l -1.61336,-4.84008 -10.08349,-3.63006 h 10.89017 c 0,0 5.24342,0.40334 5.24342,-1.61336 0,-2.01669 2.0167,-6.85677 2.0167,-6.85677 0,0 5.24341,-2.42004 6.85677,-2.42004 1.61336,0 10.89017,0 10.89017,0 0,0 -1.61336,-4.43674 0.40334,-5.64675 2.0167,-1.21002 4.84008,-2.82338 4.84008,-2.82338 l -1.61336,-2.82338 1.61336,-7.66345 c 0,0 2.42004,-3.63006 3.22672,-6.85678 0.80668,-3.22672 0.80668,-7.26011 0.80668,-7.26011 l -0.40334,-8.0668 -4.0334,-6.45343 0.80668,-5.24342 c 0,0 2.42004,6.0501 4.43673,6.0501 2.0167,0 4.0334,-2.0167 4.0334,-2.0167 0,0 -4.0334,-7.66345 -4.84007,-9.27681 -0.80668,-1.61336 -5.64676,-10.48684 -5.64676,-10.48684 l -5.24342,-7.66345 -7.26011,-7.26011 -7.26012,-1.61336 c 0,0 -5.64675,-5.64676 -2.82337,-5.64676 2.82337,0 6.05009,0 6.05009,-2.42004 0,-2.42003 0.80668,-8.87347 0,-10.48683 -0.80668,-1.61336 -0.80668,-6.05009 -0.80668,-6.05009 l -2.42004,-9.27682 5.64676,3.22672 4.43674,8.06679 2.0167,8.47014 2.82337,3.63006 3.63006,3.63005 -6.45343,3.22672 -6.85678,3.22672 c 0,0 -5.24342,3.63005 -6.85677,3.63005 -1.61336,0 -6.0501,-0.40333 -6.0501,-0.40333 l 2.0167,-5.64676 -5.24342,0.80668 -1.21002,-2.82338 -3.22671,7.26012 c 0,0 -6.45344,3.22671 -6.85678,1.61335 -0.40334,-1.61335 -0.40334,-6.85677 -0.40334,-6.85677 0,0 3.22672,-4.0334 4.84008,-4.0334 1.61336,0 5.64675,-0.40334 4.84007,-2.0167 -0.80667,-1.61335 -6.45343,-6.45343 -4.84007,-6.45343 1.61336,0 5.64675,-3.63006 4.84007,-5.24342 -0.80667,-1.61336 -8.06679,-5.64675 -8.06679,-5.64675 l -7.26011,-4.84008 -4.0334,-2.42004 -3.22672,4.0334 0.40334,3.63006 h -4.03339 l 1.21001,-4.84008 z"
       id="path7308"
       transform="translate(-1126.643,-597.3521)" />
    <path
       style="fill:#ffffd0;fill-opacity:1;fill-rule:evenodd;stroke:#0000ff;stroke-width:1px;stroke-linecap:butt;stroke-linejoin:miter;stroke-opacity:1"
       d="m 306.9415,628.84781 -2.42004,4.84007 -2.42003,2.42004 c 0,0 5.24341,2.0167 7.26011,1.61336 2.0167,-0.40334 3.22672,-4.0334 3.22672,-4.0334 z"
       id="path7310"
       transform="translate(-1126.643,-597.3521)" />
    <path
       style="fill:#ffffd0;fill-opacity:1;fill-rule:evenodd;stroke:#0000ff;stroke-width:1px;stroke-linecap:butt;stroke-linejoin:miter;stroke-opacity:1"
       d="m 334.77194,653.45153 -1.21002,4.43674 c 0,0 -1.61336,2.42003 3.22672,2.42003 4.84007,0 5.64675,1.61336 5.64675,1.61336 l 6.45344,0.80668 v -3.63006 l -6.45344,-1.61335 -3.63005,-1.61336 z"
       id="path7312"
       transform="translate(-1126.643,-597.3521)" />
    <path
       style="fill:#ffffd0;fill-opacity:1;fill-rule:evenodd;stroke:#0000ff;stroke-width:1px;stroke-linecap:butt;stroke-linejoin:miter;stroke-opacity:1"
       d="m 322.26841,649.41813 -2.0167,3.63006 1.61336,5.24342 5.24342,0.40333 v -5.64675 l -2.42004,-0.80668 z"
       id="path7314"
       transform="translate(-1126.643,-597.3521)" />
    <path
       style="fill:#ffffd0;fill-opacity:1;fill-rule:evenodd;stroke:#0000ff;stroke-width:1px;stroke-linecap:butt;stroke-linejoin:miter;stroke-opacity:1"
       d="m 331.14188,669.18178 v 5.24341 l 5.24342,4.43674 v 4.84008 l 14.92357,12.50353 8.47013,6.85677 0.80668,-4.84008 h 8.47013 l 3.63006,-4.84007 -9.27681,-7.66346 -0.40334,4.84008 h -4.0334 l -2.82338,-4.84008 -2.82337,-4.43673 v 2.0167 l 0.80668,4.43673 -6.0501,-2.82338 -3.22672,-2.01669 v -3.63006 l -4.03339,-4.43674 -2.82338,-0.80668 -3.22672,-4.03339 z"
       id="path7316"
       transform="translate(-1126.643,-597.3521)" />
    <path
       style="fill:#ffffd0;fill-opacity:1;fill-rule:evenodd;stroke:#0000ff;stroke-width:1px;stroke-linecap:butt;stroke-linejoin:miter;stroke-opacity:1"
       d="m 419.06993,626.02443 -2.82337,7.26011 v 4.84008 l -2.82338,3.22672 -2.0167,6.85677 0.40334,8.0668 -5.64676,6.85677 -1.61335,5.24342 -3.22672,-0.40334 -0.80668,-3.22672 c 0,0 -0.80668,7.26011 -2.42004,7.26011 -1.61336,0 -6.05009,4.84008 -6.05009,4.84008 l -2.42004,5.24342 2.82338,3.22671 -2.42004,6.0501 -1.21002,5.24342 -8.87347,2.42003 6.45343,4.0334 0.40334,6.0501 2.42004,7.26011 0.40334,4.84008 6.05009,-2.42004 2.82338,-4.84008 2.42004,-8.06679 1.61336,-8.47014 2.82338,-6.85677 2.82337,-4.43674 c 0,0 -2.0167,-4.43673 -0.40334,-6.45343 1.61336,-2.0167 3.22672,-5.24342 3.22672,-5.24342 v -2.82338 l 6.85678,-4.84007 v -7.26012 l 0.80668,-6.05009 c 0,0 2.01669,-4.0334 2.01669,-6.0501 0,-2.01669 0,-6.05009 0,-6.05009 l 4.0334,-5.24342 v -4.43673 z"
       id="path7318"
       transform="translate(-1126.643,-597.3521)" />
    <path
       style="fill:#ffffd0;fill-opacity:1;fill-rule:evenodd;stroke:#0000ff;stroke-width:1px;stroke-linecap:butt;stroke-linejoin:miter;stroke-opacity:1"
       d="m 449.32041,613.92424 -0.40334,4.84008 3.22672,4.43673 -0.80668,3.63006 -0.80668,2.42004 -2.42004,6.85677 -2.42004,-2.82338 c 0,0 -0.80668,0 -0.80668,-2.01669 0,-2.0167 0,-5.24342 0,-5.24342 l 4.84008,-1.61336 6.45344,-0.80668 v -3.22672 l -3.22672,-2.01669 0.40334,-2.82338 z"
       id="path7322"
       transform="translate(-1126.643,-597.3521)" />
    <path
       style="fill:#ffffd0;fill-opacity:1;fill-rule:evenodd;stroke:#0000ff;stroke-width:1px;stroke-linecap:butt;stroke-linejoin:miter;stroke-opacity:1"
       d="m 484.00762,669.98846 -4.43673,0.40334 v 3.63005 l -3.63006,-2.0167 -3.22672,0.80668 2.42004,6.0501 4.84008,-0.40334 2.0167,-2.42004 6.05009,-1.21002 z"
       id="path7324"
       transform="translate(-1126.643,-597.3521)" />
    <path
       style="fill:#ffffd0;fill-opacity:1;fill-rule:evenodd;stroke:#0000ff;stroke-width:1px;stroke-linecap:butt;stroke-linejoin:miter;stroke-opacity:1"
       d="m 494.09112,664.74504 -4.0334,2.82338 -2.42004,0.80668 5.24342,3.63005 2.42004,2.82338 3.22671,-2.82338 0.40334,-5.64675 z"
       id="path7326"
       transform="translate(-1126.643,-597.3521)" />
    <path
       style="fill:#ffffd0;fill-opacity:1;fill-rule:evenodd;stroke:#0000ff;stroke-width:1px;stroke-linecap:butt;stroke-linejoin:miter;stroke-opacity:1"
       d="m 446.49703,672.00515 -3.63005,6.45344 -4.43674,-4.84008 -3.22672,5.24342 -2.42004,0.40334 -2.01669,10.08349 8.06679,6.85678 3.63006,3.63005 -6.0501,5.64676 -6.45343,-2.0167 -3.63006,-4.0334 -2.0167,-2.42003 -2.82338,3.63005 4.0334,6.0501 v 4.84007 l 8.87347,5.64676 8.47014,1.61336 9.27681,5.64675 7.26011,1.21002 6.85678,8.47014 c 0,0 6.85677,6.85677 9.27681,6.85677 2.42004,0 9.68015,4.84008 9.68015,4.84008 l 5.24342,5.64675 3.22672,-2.82337 -5.64676,-3.63006 1.21002,-2.82338 7.26011,-0.40334 2.0167,-5.64676 5.64676,-0.40333 6.05009,-0.80668 4.84008,1.21001 2.42004,-2.01669 1.61336,5.24341 c 0,0 5.24341,0.40334 7.26011,0 2.0167,-0.40334 3.63006,-1.61336 3.63006,-1.61336 l 3.63006,-10.89017 -5.24342,-0.40334 1.61336,-4.43673 c 0,0 5.24341,1.21001 4.84007,-0.40334 -0.40333,-1.61336 0.40334,-3.63006 -0.40333,-5.64676 -0.80668,-2.0167 -5.64676,-8.87347 -5.64676,-8.87347 l -3.22672,-6.85678 -5.64675,-8.87347 v -11.29351 l -4.0334,-3.22672 c 0,0 3.22672,-1.21002 3.22672,-2.82338 0,-1.61336 2.42004,-3.22671 2.42004,-3.22671 l 5.64675,6.05009 c 0,0 -0.40334,-6.85677 2.0167,-6.85677 2.42004,0 8.47013,7.66345 8.47013,7.66345 l 2.82338,5.24342 4.43674,-6.85678 c 0,0 4.43673,7.66346 7.66345,7.66346 3.22672,0 10.08349,-0.80668 10.08349,-0.80668 l -2.0167,-6.0501 -12.50353,2.42004 2.0167,7.66345 c 0,0 8.47014,0.80668 10.0835,0.40334 1.61335,-0.40334 8.06679,0 8.06679,0 l 12.90687,-0.80668 c 0,0 -0.40334,-4.84007 1.21002,-5.24341 1.61336,-0.40334 5.64675,-7.26012 8.06679,-7.26012 2.42004,0 8.0668,-3.63005 8.0668,-3.63005 l 11.29351,2.82337 h 8.47013 l -0.40334,-7.26011 -2.82338,-5.64676 -6.45343,-2.01669 -8.87348,-1.61336 -13.71354,1.21002 -1.21002,7.26011 8.47013,0.80668 0.80668,2.42004 -8.06679,0.80668 -10.89018,0.80668 -8.06679,2.01669 -1.21002,5.24342 c 0,0 2.82338,2.82338 2.0167,5.24342 -0.80668,2.42003 -2.42004,3.63005 -2.82338,6.45343 -0.40334,2.82338 3.63006,5.64676 3.63006,5.64676 l 2.42004,4.03339 -5.24342,6.45344 c 0,0 -5.24342,4.0334 -5.24342,6.45343 0,2.42004 -6.85677,8.87348 -6.85677,8.87348 l -3.63006,5.64675 c 0,0 -2.0167,3.22672 -2.0167,4.84008 0,1.61336 -2.42003,3.22672 -2.42003,3.22672 l 2.82337,4.03339 v 9.68016 9.27681 l -6.85677,-1.61336 -0.40334,-6.0501 -2.82338,-8.47013 -2.0167,-3.63006 0.80668,-8.87347 3.63006,-6.45343 -3.63006,-1.61336 -2.0167,-8.0668 -8.06679,-4.43673 -4.43674,-7.26012 -4.43673,-1.61336 c 0,0 3.22672,-3.63005 1.21002,-4.43673 -2.0167,-0.80668 -6.45344,-6.45344 -6.45344,-6.45344 l -5.64675,-3.63006 -1.61336,6.85678 3.63005,4.0334 -5.24341,1.61336 -4.0334,-4.84008 -4.0334,2.42004 3.63006,5.24341 c 0,0 4.84008,-2.42004 4.84008,0 0,2.42004 -0.80668,4.84008 -0.80668,4.84008 l -3.63006,-3.63006 h -5.24341 l -3.63006,-2.82338 -4.0334,2.0167 -0.80668,-7.66345 -1.61336,-1.61336 -4.84007,2.0167 c 0,0 -2.82338,-6.0501 -4.43674,-6.45344 -1.61336,-0.40334 -3.63006,-5.24341 -3.63006,-5.24341 l -3.63005,-1.21002 -4.84008,-6.0501 -3.22672,-0.80668 z"
       id="path7328"
       transform="translate(-1126.643,-597.3521)" />
    <path
       style="fill:#ffffd0;fill-opacity:1;fill-rule:evenodd;stroke:#0000ff;stroke-width:1px;stroke-linecap:butt;stroke-linejoin:miter;stroke-opacity:1"
       d="m 412.31496,503.05866 3.97412,1.98706 3.97412,3.64294 c 0,0 7.94824,-2.98059 7.61707,-1.65588 -0.33118,1.32471 3.31176,2.98059 3.64294,4.63647 0.33118,1.65589 8.61059,7.61707 8.61059,7.61707 0,0 -7.94824,3.31176 -7.94824,1.98706 0,-1.32471 -5.29882,-3.97412 -5.29882,-3.97412 0,0 -6.95471,-0.99353 -6.95471,1.3247 0,2.31824 3.64294,5.29883 3.64294,5.29883 l 9.9353,0.33118 c 0,0 6.29236,3.31176 7.94824,3.31176 1.65588,0 5.63,6.29236 5.63,6.29236 0,0 1.65589,5.29883 1.65589,6.95471 0,1.65588 -1.65589,7.61706 -1.65589,7.61706 0,0 -8.27941,-1.3247 -8.27941,0 0,1.32471 -0.33118,4.96765 0.99353,4.96765 1.3247,0 8.27941,0 8.61059,1.32471 0.33118,1.32471 1.32471,4.96765 1.32471,4.96765 l 2.31823,7.94824 1.65589,6.62353 2.31823,5.29883 -6.29235,3.97412 -4.63648,1.32471 c 0,0 -2.98059,-0.66236 -3.97412,0.99353 -0.99353,1.65588 -4.63647,2.64941 -2.98059,3.64294 1.65589,0.99353 11.59119,7.94824 11.59119,7.94824 0,0 5.29882,4.96765 6.62353,4.96765 1.32471,0 3.64294,4.96765 3.64294,6.62354 0,1.65588 0,7.61706 0,7.61706 l 5.63001,4.63647 c 0,0 6.29235,-0.99353 8.27941,-0.33117 1.98706,0.66235 9.60413,0.66235 9.60413,0.66235 l 11.92236,-1.65588 0.66235,3.97412 9.9353,-0.33118 6.62353,2.98059 1.98706,-5.63 3.97412,2.98059 -3.31176,6.29235 7.61706,0.33118 4.3053,3.31177 h -5.96118 v 4.96765 l -4.96765,-0.66236 4.96765,6.62354 2.64941,3.64294 -7.61706,-1.65588 -10.59766,-1.65589 1.65589,2.98059 10.26647,3.97412 10.26648,2.31824 1.65588,-2.64941 2.31824,8.94177 8.94177,4.63647 1.98706,-2.98059 c 0,0 8.6106,8.94177 11.92236,8.94177 3.31177,0 9.27295,-0.66235 9.27295,-0.66235 l 7.94824,-5.96118 c 0,0 1.32471,-1.98706 -0.33118,-3.97412 -1.65588,-1.98706 -2.64941,-6.95471 -2.64941,-6.95471 l -3.64294,-3.64295 v -4.30529 l 4.30529,2.31823 c 0,0 4.63648,0.33118 4.3053,-0.99353 -0.33118,-1.3247 -0.33118,-10.26647 -0.33118,-10.26647 l -6.29235,-0.99353 -5.63001,-2.98059 2.98059,-3.64295 2.64942,2.98059 -3.31177,3.97412 -7.94824,-1.65588 -2.64941,-2.98059 3.64294,-4.63647 c 0,0 7.28589,1.3247 7.61706,0 0.33118,-1.32471 5.96118,-7.61707 5.96118,-7.61707 l 8.6106,-5.63 10.26647,-2.64941 3.97412,3.31176 7.28589,-5.96118 c 0,0 7.28589,-1.3247 6.95471,-2.64941 -0.33118,-1.32471 0,-15.5653 0,-15.5653 0,0 -2.64941,-1.65589 -3.97412,-2.9806 -1.32471,-1.3247 -3.64294,-6.29235 -3.64294,-6.29235 l -4.3053,-3.64295 h -9.27295 c 0,0 0.66236,-2.31823 -1.98706,-2.64941 -2.64941,-0.33118 -7.28588,-3.31177 -7.28588,-3.31177 0,0 -0.99353,-1.98706 -0.99353,-3.31176 0,-1.32471 0,-7.28589 0,-8.6106 0,-1.3247 2.98059,-7.61706 3.31176,-8.94177 0.33118,-1.3247 3.64295,-5.63 3.64295,-5.63 l 5.96118,-5.96118 c 0,0 3.31176,0.99353 4.63647,-0.33118 1.32471,-1.3247 4.3053,-7.61706 4.3053,-7.61706 l 8.61059,2.98059 h 5.63 v -5.63 h 6.29236 c 0,0 1.98706,-3.97412 2.31824,-5.29883 0.33117,-1.32471 5.96118,-4.96765 5.96118,-4.96765 h 3.64294 v 6.62353 l 3.64294,3.64295 0.66236,6.62353 -4.96765,3.97412 -4.63648,5.96118 c 0,0 -3.64294,-2.64941 -6.62353,-3.64294 -2.98059,-0.99353 -4.96765,-3.97412 -4.96765,-3.97412 l 4.3053,-7.61707 1.98706,-5.29882 7.94824,-8.27942 -1.65589,-5.96118 -4.63647,-3.97412 c 0,0 3.64294,-3.64294 3.64294,-5.29883 0,-1.65588 0,-10.59765 0,-10.59765 0,0 -2.64941,-5.96118 -2.98059,-7.28589 -0.33117,-1.3247 -1.98706,-7.28588 -1.98706,-7.28588 l -3.31176,-5.96118 c 0,0 -4.63648,-4.3053 -2.98059,-5.63001 1.65588,-1.32471 0.66235,-4.63647 2.98059,-6.95471 2.31823,-2.31824 2.98059,-8.94177 2.98059,-8.94177 0,0 6.29235,-3.97412 6.29235,-5.63 0,-1.65589 1.32471,-3.97412 1.32471,-3.97412 L 615.32626,427.2192 c 0,0 -7.94824,0.33118 -9.27294,0.33118 -1.32471,0 -4.96765,-1.98706 -4.96765,-1.98706 h -3.31177 l -5.63,-3.97412 c 0,0 -1.98706,-3.97412 -3.31177,-3.97412 -1.32471,0 -7.94824,3.97412 -7.94824,3.97412 l -6.95471,2.64941 -6.62353,4.63647 c 0,0 -2.31824,1.32471 -4.3053,2.31824 -1.98706,0.99353 -4.96765,5.63 -4.96765,5.63 l -6.62353,4.63648 -5.96118,2.64941 -7.61707,5.29883 -5.96118,5.29882 c 0,0 1.32471,4.96765 3.31177,4.96765 1.98706,0 5.63,0 6.95471,-0.66235 1.32471,-0.66235 3.97412,-4.96765 3.97412,-4.96765 h 6.95471 c 0,0 2.98059,-2.98059 3.31177,-4.63647 0.33117,-1.65589 4.30529,-3.97412 4.30529,-3.97412 l 5.96118,5.29882 4.3053,3.97412 -1.32471,4.96765 -7.61706,0.33118 c 0,0 -4.3053,-2.98059 -2.98059,-3.97412 1.32471,-0.99353 3.31177,-2.98059 3.31177,-2.98059 l -2.64942,-1.32471 -3.64294,3.31177 -0.99353,4.63647 2.64941,6.95471 v 3.31177 l 2.64942,6.95471 -2.64942,7.61707 2.98059,7.94824 1.32471,4.30529 3.97412,6.95471 v 6.95471 c 0,0 -3.64294,4.3053 -3.64294,5.63001 0,1.3247 -0.99353,7.28588 -0.99353,7.28588 l -6.62354,-7.28588 -3.31176,-1.65589 -2.98059,-5.63 5.96118,-0.33118 -3.97412,-3.31176 10.59765,-0.66236 -3.97412,-4.63647 1.32471,-3.31177 -2.64942,-5.29882 v -6.29236 l -3.64294,-7.61706 c 0,0 0.33118,-4.96765 0.33118,-6.29236 0,-1.32471 0.33117,-4.3053 0.33117,-4.3053 l -5.29882,-4.3053 -8.27942,-0.66235 3.64294,6.95471 2.98059,7.28589 -0.99353,6.62353 -4.63647,3.97412 c 0,0 -5.63001,0.99353 -5.96118,2.31824 -0.33118,1.32471 -0.33118,10.59765 -0.33118,10.59765 l 2.31824,6.29236 -3.64295,5.96118 -4.30529,8.27942 c 0,0 1.65588,-3.64295 0.33117,-4.63648 -1.3247,-0.99353 -4.63647,-7.28588 -4.63647,-7.28588 l -6.62353,1.65588 h -6.62354 c 0,0 -2.31823,-5.63 -0.66235,-5.63 1.65588,0 10.26648,-0.33118 10.26648,-0.33118 0,0 3.97412,-0.99353 3.97412,-2.31824 0,-1.3247 0.33117,-3.97412 -0.99353,-4.63647 -1.32471,-0.66235 -1.98706,-2.64941 -3.97412,-2.64941 -1.98706,0 -5.96118,0.33117 -5.96118,0.33117 0,0 -2.98059,2.31824 -4.63648,1.98706 -1.65588,-0.33117 -3.31176,-3.64294 -3.31176,-3.64294 l 5.63,-2.98059 v -3.64294 l 2.98059,1.3247 4.63647,2.31824 0.66236,-8.27942 -2.64942,-5.63 c 0,0 -4.96765,-4.63647 -4.96765,-5.96118 0,-1.32471 1.65589,-4.96765 1.65589,-4.96765 l 6.62353,2.64941 1.65588,-6.62353 3.64295,-2.98059 0.33117,-7.28589 c 0,0 -4.96765,-0.33118 -6.29235,1.65588 -1.32471,1.98706 -5.29883,4.96765 -5.29883,4.96765 l -7.94824,0.33118 c 0,0 -0.99353,-3.31177 -2.31824,-3.31177 -1.3247,0 -6.29235,2.31824 -7.94824,2.31824 -1.65588,0 -6.29235,-2.64941 -6.29235,-2.64941 l -8.94177,-0.66236 -6.95471,-1.3247 -3.97412,-2.98059 -5.63001,-4.63648 -2.98059,-2.31823 0.66236,7.94824 6.62353,5.63 c 0,0 6.95471,0.66235 6.95471,1.98706 0,1.32471 10.26648,0.66235 10.26648,0.66235 l 4.63647,2.98059 3.64294,2.98059 1.32471,11.92237 -2.98059,2.64941 -9.60412,0.33118 -4.3053,3.64294 -5.63,-5.29883 c 0,0 3.97412,6.62354 3.64294,8.94177 -0.33118,2.31824 -0.66235,8.27942 -0.66235,8.27942 l -1.65589,3.97412 -6.95471,0.99353 -0.99353,-5.63 -2.31823,-3.31177 -0.33118,13.24707 h -5.29883 c 0,0 -1.65588,-6.62354 -2.31823,-4.3053 -0.66236,2.31824 -4.63648,3.97412 -4.63648,3.97412 0,0 -0.66235,-3.64294 -1.98706,-3.64294 -1.3247,0 -5.29882,0 -5.29882,0 0,0 -2.98059,4.63647 -4.3053,4.30529 -1.32471,-0.33117 -8.61059,-0.66235 -8.61059,-0.66235 0,0 -4.3053,-1.32471 -5.63001,-1.32471 -1.3247,0 -5.29882,-2.64941 -5.29882,-2.64941 0,0 -0.99354,2.31824 -3.31177,2.31824 -2.31824,0 -5.63001,0.33117 -4.3053,0.66235 z"
       id="path8215"
       transform="translate(-1126.643,-597.3521)" />
    <path
       style="fill:#ffffd0;fill-opacity:1;fill-rule:evenodd;stroke:#0000ff;stroke-width:1px;stroke-linecap:butt;stroke-linejoin:miter;stroke-opacity:1"
       d="m 640.49569,521.27338 4.96765,-2.98059 2.64941,3.64294 0.99353,6.95471 -3.31176,4.63647 -2.31824,-4.30529 -3.31177,-2.98059 z"
       id="path8217"
       transform="translate(-1126.643,-597.3521)" />
    <path
       style="fill:#ffffd0;fill-opacity:1;fill-rule:evenodd;stroke:#0000ff;stroke-width:1px;stroke-linecap:butt;stroke-linejoin:miter;stroke-opacity:1"
       d="m 523.59032,493.78571 h 5.29883 l 1.32471,1.98706 3.31176,2.31824 -1.98706,3.31177 -4.30529,-0.99353 -1.98706,-3.31177 z"
       id="path8219"
       transform="translate(-1126.643,-597.3521)" />
    <path
       style="fill:#ffffd0;fill-opacity:1;fill-rule:evenodd;stroke:#0000ff;stroke-width:1px;stroke-linecap:butt;stroke-linejoin:miter;stroke-opacity:1"
       d="m 892.65645,600.04059 c 0.72163,0.18041 3.06693,4.14937 3.06693,4.14937 0,0 2.34529,6.31427 3.24733,6.31427 0.90204,0 6.67508,3.42774 6.67508,3.42774 l 2.3453,3.24734 5.05141,2.70611 2.16489,-2.16489 c 0,0 3.42774,5.77304 4.14937,5.95345 0.72163,0.18041 4.6906,3.06693 4.6906,3.06693 l 4.69059,3.96896 5.95345,1.08245 c 0,0 4.14937,2.70611 4.51019,4.14937 0.36081,1.44326 -1.62367,12.80893 -1.62367,12.80893 l -0.72163,4.87101 c 0,0 -1.98448,4.14937 -2.3453,5.23182 -0.36081,1.08244 -2.88652,6.31426 -2.88652,6.31426 0,0 -1.98448,2.5257 -3.78855,2.16489 -1.80408,-0.36082 -1.98449,-3.96897 -3.78856,-3.96897 -1.80408,0 -9.02038,0 -9.02038,0 l -5.41223,-2.88652 -5.05141,-3.24733 -5.05141,-3.42775 -5.95345,-1.80407 -3.42774,-0.18041 -5.77304,-6.31426 -3.24733,-1.44326 0.90203,-7.0359 2.3453,-3.06692 -0.18041,-8.65956 -1.62366,-3.96897 2.88652,-7.03589 1.80407,-5.77304 c 0,0 0.54122,-5.05142 1.26285,-5.05142 0.72163,0 4.6906,-3.60815 4.14938,-3.42774 z"
       id="path9995"
       transform="translate(-1126.643,-597.3521)" />
    <path
       style="fill:#f7d3aa;fill-opacity:1;fill-rule:evenodd;stroke:#0000ff;stroke-width:1px;stroke-linecap:butt;stroke-linejoin:miter;stroke-opacity:1"
       d="m 976.91192,416.82902 -19.89638,1.98963 -4.97409,-5.96891 h -9.94819 l -17.90673,-0.99482 -8.95337,-0.99482 -12.93264,2.98446 -3.97928,4.97409 -9.94818,-5.96891 h -9.94819 l 2.98446,18.90156 11.93782,6.96373 -3.97927,5.96891 -8.95337,4.97409 -11.93783,-5.96891 -7.95855,-7.95855 -12.93264,14.92228 -9.94818,8.95337 -1.98964,7.95855 -8.95337,11.93782 -3.97927,18.90156 -0.99482,9.94818 8.95337,9.94819 1.98963,12.93264 5.96891,9.94819 -0.99481,11.93782 -7.95855,10.94301 -3.97928,14.92228 -3.97927,4.97409 -16.91192,-1.98964 -12.93264,-9.94818 h -10.94301 -17.90673 l -16.91192,7.95854 -5.96891,0.99482 -16.91192,8.95337 h -16.91192 l -10.943,-5.96891 L 682.4456,582.96373 669.51295,576 l -6.96373,4.97409 h -10.943 l 5.96891,-10.943 c 0,0 -2.98446,2.98445 3.97927,1.98964 6.96373,-0.99482 11.93783,-3.97928 11.93783,-3.97928 l -5.96891,-11.93782 -1.98964,-5.96891 -0.99482,-7.95855 12.93264,-12.93265 c 0,0 6.96373,-5.96891 5.96891,-9.94818 -0.99481,-3.97928 -7.95854,-11.93783 -7.95854,-11.93783 l -5.96892,-3.97927 -5.96891,-5.96891 1.98964,-5.96892 -4.97409,-14.92228 h -6.96374 l -5.96891,-12.93264 -3.97927,-13.92746 -4.97409,-7.95855 -1.98964,-10.943 -11.93783,-12.93265 -8.95336,-13.92746 0.99481,-8.95336 -6.96373,-16.91192 17.90674,10.943 7.95855,4.9741 1.98964,5.96891 h 5.96891 l 9.94818,-6.96373 1.98964,-6.96373 c 0,0 -4.97409,1.98963 -6.96373,-2.98446 -1.98964,-4.97409 -3.97927,-12.93264 -3.97927,-12.93264 l -8.95337,-6.96373 -10.94301,-6.96373 9.94819,-7.95855 5.96891,-3.97928 c 0,0 10.94301,1.98964 10.94301,6.96373 0,4.9741 11.93782,-3.97927 11.93782,-3.97927 l 1.98964,-14.92228 0.99482,-9.94819 -1.98964,-5.96891 -1.98964,-7.95855 -10.943,-10.943 v 7.95855 l -7.95855,0.99482 -7.95855,-11.93783 -6.96373,-8.95337 1.98964,-2.98445 -1.98964,-3.97928 -0.99482,-8.95337 -7.95855,-5.96891 -3.97927,-9.94818 -8.95337,-4.9741 c 0,0 -10.94301,-0.99482 -10.94301,-5.96891 0,-4.97409 0,-16.91192 0,-16.91192 0,0 -3.97927,-6.96373 -8.95336,-10.943 -4.9741,-3.97928 -9.94819,-13.92746 -9.94819,-13.92746 v -11.93783 l -8.95337,-4.97409 -0.99482,-8.95337 -2.98445,-6.96373 2.98445,-7.95855 4.9741,-5.96891 c 0,0 -0.99482,-2.98445 -4.9741,-3.97927 -3.97927,-0.99482 -4.97409,-2.98446 -4.97409,-2.98446 l 6.96373,-6.96373 -2.98446,-5.96891 -7.95855,-10.94301 -3.97927,7.95855 -0.99482,12.93264 -8.95337,-6.96373 -6.96373,-14.92228 6.96373,-10.943 -4.97409,-12.932643 0.99482,-10.943006 -5.96891,-7.958549 h -5.96892 l -8.95336,-2.984456 -0.99482,13.927461 5.96891,10.943003 2.98446,-9.948184 v -14.92228 c 0,0 13.92746,-8.953368 9.94818,-8.953368 -3.97927,0 -10.943,-1.989637 -10.943,-1.989637 l -6.96373,0.994819 -3.97928,-10.943005 c 0,0 -10.943,-1.989638 -9.94818,1.989637 0.99481,3.979274 4.97409,12.932642 4.97409,12.932642 l 7.95855,-12.932642 7.95855,-13.927461 c 0,0 -6.96373,3.979274 -8.95337,0 -1.98964,-3.979275 -4.97409,-12.932643 -4.97409,-12.932643 l 9.94818,-7.958549 V 10.943005 l -10.943,3.979275 -5.96891,14.92228 -4.9741,-11.937824 16.91192,-9.9481868 9.94819,-2.9844559 -11.93783,-3.97927465 -2.98445,4.97409325 -6.96373,7.9585491 -6.96373,-4.9740931 -6.96374,-3.9792746 5.96892,-5.96891195 -0.99482,-1.98963735 482.48704,-0.9948186"
       id="path10882"
       transform="translate(-1126.643,-597.3521)" />
    <path
       style="fill:#f7d3aa;fill-opacity:1;fill-rule:evenodd;stroke:#0000ff;stroke-width:1px;stroke-linecap:butt;stroke-linejoin:miter;stroke-opacity:1"
       d="m 634.39461,463.85189 2.20608,-0.0833 c 0,0 1.5401,0.83248 1.70659,1.0406 0.1665,0.20813 1.78984,2.16446 1.78984,2.16446 0,0 1.66497,2.20609 1.66497,2.49746 0,0.29137 -0.54111,1.66496 -1.08223,1.70659 -0.54111,0.0416 -3.82943,-0.45787 -3.87105,-0.62436 -0.0416,-0.1665 0.12487,-2.16446 -0.12487,-2.41421 -0.24975,-0.24974 -1.91472,-1.08223 -2.16446,-1.54009 -0.24975,-0.45787 -0.45787,-1.87309 -0.45787,-1.87309 z"
       id="path11769"
       transform="translate(-1126.643,-597.3521)" />
    <path
       style="fill:none;fill-rule:evenodd;stroke:#1821de;stroke-width:1px;stroke-linecap:butt;stroke-linejoin:miter;stroke-opacity:1"
       d="m 224.67309,667.8648 -5.04883,0.84147 -7.57325,4.20736 -7.57325,3.36589 -13.46356,0.84148 -14.30503,0.84147 h -6.73177 l -11.78062,-1.68295 -10.93913,2.52442 -4.20737,-8.41472"
       id="path13541"
       transform="translate(-1126.643,-597.3521)" />
    <path
       style="fill:none;fill-rule:evenodd;stroke:#1821de;stroke-width:1px;stroke-linecap:butt;stroke-linejoin:miter;stroke-opacity:1"
       d="m 233.92929,576.9858 -10.09767,13.46355 -15.1465,10.09767 -26.08564,-0.84147 -10.93914,-1.68295 -15.98797,-3.36589 -4.20736,-5.04883 -6.73178,2.52442 -5.04883,-1.68295"
       id="path13543"
       transform="translate(-1126.643,-597.3521)" />
    <path
       style="fill:none;fill-rule:evenodd;stroke:#1821de;stroke-width:1px;stroke-linecap:butt;stroke-linejoin:miter;stroke-opacity:1"
       d="m 213.73395,502.93624 -3.36589,4.20736 h -15.1465 -10.09766 l -11.78061,-7.57325 c 0,0 -12.62209,-0.84147 -15.98798,0.84147 -3.36589,1.68295 -5.04883,11.78061 -5.04883,11.78061 l -13.46356,9.2562 -15.1465,8.41472 -13.46355,4.20736 -5.89031,4.20736 -5.890306,-0.84147"
       id="path13545"
       transform="translate(-1126.643,-597.3521)" />
    <path
       style="fill:none;fill-rule:evenodd;stroke:#1821de;stroke-width:1px;stroke-linecap:butt;stroke-linejoin:miter;stroke-opacity:1"
       d="m 234.77076,465.91146 -10.93914,-5.04883 h -7.57325 l -9.25619,-3.36589 -10.09767,-5.89031 -18.51239,-0.84147 -10.09767,4.20736 -10.09767,9.25619 -11.78061,-5.8903 -6.73177,0.84147 -9.2562,4.20736 h -6.73178 l -1.68294,2.52442 -4.20736,-1.68295 -8.41473,4.20737"
       id="path13547"
       transform="translate(-1126.643,-597.3521)" />
    <path
       style="fill:#9ec7f3;fill-opacity:1;fill-rule:evenodd;stroke:#0000ff;stroke-width:1px;stroke-linecap:butt;stroke-linejoin:miter;stroke-opacity:1"
       d="m 79.939865,412.05723 7.57325,5.89031 1.682944,3.36589 4.207362,-6.73178 -4.207362,-8.41472 z"
       id="path13549"
       transform="translate(-1126.643,-597.3521)" />
    <path
       style="fill:none;fill-rule:evenodd;stroke:#1821de;stroke-width:1px;stroke-linecap:butt;stroke-linejoin:miter;stroke-opacity:1"
       d="m 221.3072,430.56962 -16.82944,-10.09766 -11.78061,-9.2562 -9.2562,3.36589 -5.8903,-7.57325 -5.89031,-4.20736 c 0,0 -1.68294,-1.68294 -1.68294,-5.04883 0,-3.36589 -0.84148,-5.89031 -0.84148,-5.89031 l -0.84147,-7.57325 -16.82944,-11.78061 -10.93914,-0.84147 -6.73178,-1.68295 h -16.82945 l -10.93914,3.36589 h -8.414718"
       id="path13551"
       transform="translate(-1126.643,-597.3521)" />
    <path
       style="fill:none;fill-rule:evenodd;stroke:#1821de;stroke-width:1px;stroke-linecap:butt;stroke-linejoin:miter;stroke-opacity:1"
       d="m 243.18548,479.37502 h 10.09767 l 13.46356,-18.51239 1.68294,-15.14651 -1.68294,-3.36588 4.20736,-6.73178 3.36589,-5.89031 -0.84148,-5.04883 -10.93914,-5.89031 -5.04883,-0.84147 -10.93914,-9.25619 11.78061,-1.68295 6.73178,-2.52442 0.84147,-10.09766 -5.04883,-12.62209 -5.04883,-3.36589 5.04883,-12.62208 15.98797,-1.68294 10.93914,2.52441 10.09767,-8.41472 9.25619,-7.57325 17.67092,-5.04883 11.78061,-5.89031 v -15.1465 c 0,0 -3.36589,-5.04883 0,-5.89031 3.36589,-0.84147 9.2562,-2.52441 9.2562,-2.52441"
       id="path13553"
       transform="translate(-1126.643,-597.3521)" />
    <circle
       style="fill:#000000"
       id="path429"
       cx="-513.53876"
       cy="-83.979477"
       r="5" />
    <text
       xml:space="preserve"
       style="line-height:0%;fill:#000000"
       x="-538.88043"
       y="-93.789124"
       id="text539"><tspan
         x="-538.88043"
         y="-93.789124"
         id="tspan541"
         style="font-size:9.33333px;line-height:1.25">Kbenhavn</tspan></text>
    <circle
       style="fill:#000000"
       id="path545"
       cx="-770.22504"
       cy="-21.44286"
       r="5" />
    <circle
       style="fill:#000000"
       id="path545-6"
       cx="-820.09088"
       cy="-377.45206"
       r="5" />
    <circle
       style="fill:#000000"
       id="path545-2"
       cx="-892.02844"
       cy="-253.19626"
       r="5" />
    <circle
       style="fill:#000000"
       id="path545-0"
       cx="-999.93481"
       cy="-36.566086"
       r="5" />
    <text
       xml:space="preserve"
       style="line-height:0%;fill:#000000"
       x="-905.10797"
       y="-239.29921"
       id="text610"><tspan
         x="-905.10797"
         y="-239.29921"
         id="tspan612"
         style="font-size:9.33333px;line-height:1.25">Viborg</tspan></text>
    <text
       xml:space="preserve"
       style="line-height:0%;fill:#000000"
       x="-836.44031"
       y="-361.92007"
       id="text618"><tspan
         x="-836.44031"
         y="-361.92007"
         id="tspan620"
         style="font-size:9.33333px;line-height:1.25">Aalborg</tspan></text>
    <text
       xml:space="preserve"
       style="line-height:0%;fill:#000000"
       x="-816.00354"
       y="-191.88582"
       id="text626"><tspan
         id="tspan624"
         x="-816.00354"
         y="-191.88582"
         style="font-size:9.33333px;line-height:1.25">Aarhus</tspan></text>
    <text
       xml:space="preserve"
       style="line-height:0%;fill:#000000"
       x="-1017.1018"
       y="-45.558289"
       id="text630"><tspan
         id="tspan628"
         x="-1017.1018"
         y="-45.558289"
         style="font-size:9.33333px;line-height:1.25">Esbjerg</tspan></text>
    <text
       xml:space="preserve"
       style="line-height:0%;fill:#000000"
       x="-788.20941"
       y="-5.5021329"
       id="text634"><tspan
         id="tspan632"
         x="-788.20941"
         y="-5.5021329"
         style="font-size:9.33333px;line-height:1.25">Odense</tspan></text>
  </g>
</svg>
