<?xml version="1.0" encoding="UTF-8" standalone="no"?>
<!-- Created with Inkscape (http://www.inkscape.org/) -->
<svg
   xmlns:dc="http://purl.org/dc/elements/1.1/"
   xmlns:cc="http://web.resource.org/cc/"
   xmlns:rdf="http://www.w3.org/1999/02/22-rdf-syntax-ns#"
   xmlns:svg="http://www.w3.org/2000/svg"
   xmlns="http://www.w3.org/2000/svg"
   xmlns:sodipodi="http://sodipodi.sourceforge.net/DTD/sodipodi-0.dtd"
   xmlns:inkscape="http://www.inkscape.org/namespaces/inkscape"
   width="979"
   height="768"
   id="svg2"
   sodipodi:version="0.32"
   inkscape:version="0.45.1"
   version="1.0"
   sodipodi:docbase="D:\Backups from C\Eigene Bilder\Maps"
   sodipodi:docname="Denmark_blank.svg"
   inkscape:output_extension="org.inkscape.output.svg.inkscape">
  <defs
     id="defs4" />
  <sodipodi:namedview
     id="base"
     pagecolor="#ffffff"
     bordercolor="#666666"
     borderopacity="1.0"
     gridtolerance="10000"
     guidetolerance="10"
     objecttolerance="10"
     inkscape:pageopacity="0.0"
     inkscape:pageshadow="2"
     inkscape:zoom="1.223283"
     inkscape:cx="489.45078"
     inkscape:cy="383.50258"
     inkscape:document-units="px"
     inkscape:current-layer="layer1"
     inkscape:window-width="1920"
     inkscape:window-height="1144"
     inkscape:window-x="-4"
     inkscape:window-y="-4" />
  <metadata
     id="metadata7">
    <rdf:RDF>
      <cc:Work
         rdf:about="">
        <dc:format>image/svg+xml</dc:format>
        <dc:type
           rdf:resource="http://purl.org/dc/dcmitype/StillImage" />
      </cc:Work>
    </rdf:RDF>
  </metadata>
  <g
     inkscape:label="Layer 1"
     inkscape:groupmode="layer"
     id="layer1"
     transform="translate(1126.643,597.3521)">
    <rect
       style="fill:#9ec7f3;fill-opacity:0"
       id="rect1953"
       width="986.86011"
       height="774.96375"
       x="-3.9792745"
       y="-2.9844561"
       transform="translate(-1126.643,-597.3521)" />
    <path
       style="fill:#ffffd0;fill-rule:evenodd;stroke:none;stroke-width:1px;stroke-linecap:butt;stroke-linejoin:miter;stroke-opacity:1;fill-opacity:1"
       d="M 137.28497,674.48705 L 147.23316,666.5285 L 139.27461,656.58031 L 138.27979,644.64249 L 142.25907,628.72539 L 142.25907,615.79275 L 141.26425,603.85492 L 141.26425,587.93782 L 140.26943,580.97409 L 138.27979,573.01554 L 131.31606,565.05699 L 121.36788,564.06218 L 111.41969,565.05699 L 104.45596,565.05699 L 107.44041,575.00518 L 112.41451,585.94819 L 120.37306,591.9171 L 117.3886,580.97409 L 119.37824,576 L 115.39896,571.02591 L 113.40933,561.07772 L 106.4456,550.13472 L 96.497409,539.19171 L 98.487047,536.20725 L 96.497409,534.21762 L 89.533679,544.1658 L 95.502591,554.11399 L 99.481865,562.07254 L 86.549223,551.12953 L 68.642487,544.1658 L 77.595855,515.31606 L 81.57513,504.37306 L 82.569948,490.4456 L 88.53886,483.48187 L 93.512953,485.4715 L 108.43523,473.53368 L 109.43005,466.56995 L 106.4456,462.59067 L 106.4456,457.61658 L 100.47668,451.64767 L 98.487047,445.67876 L 98.487047,441.69948 L 90.528497,432.74611 L 82.569948,427.77202 L 78.590674,425.78238 L 78.590674,442.6943 L 78.590674,453.63731 L 82.569948,472.53886 L 93.512953,474.5285 L 89.533679,478.50777 L 79.585492,485.4715 L 77.595855,474.5285 L 75.606218,463.58549 L 75.606218,455.62694 L 72.621762,443.68912 L 72.621762,438.71503 L 73.61658,419.81347 L 76.601036,402.90155 L 76.601036,393.94819 L 75.606218,381.01554 L 76.601036,376.04145 L 88.53886,378.03109 L 91.523316,385.98964 L 98.487047,375.04663 L 90.528497,368.0829 L 84.559585,362.11399 L 89.533679,360.12435 L 80.580311,351.17098 L 78.590674,368.0829 L 75.606218,372.06218 L 73.61658,323.31606 L 75.606218,313.36788 L 80.580311,302.42487 L 89.533679,292.47668 L 86.549223,308.39378 L 94.507772,314.36269 L 97.492228,321.32642 L 107.44041,319.33679 L 117.3886,325.3057 L 127.33679,329.28497 L 128.33161,322.32124 L 134.30052,336.2487 L 140.26943,334.25907 L 141.26425,326.30052 L 141.26425,321.32642 L 137.28497,325.3057 L 136.29016,341.2228 L 146.23834,344.20725 L 154.19689,340.22798 L 152.20725,334.25907 L 152.20725,330.27979 L 150.21762,323.31606 L 144.2487,314.36269 L 149.2228,312.37306 C 149.2228,312.37306 151.21244,316.35233 154.19689,311.37824 C 157.18135,306.40415 155.19171,300.43523 159.17098,300.43523 C 163.15026,300.43523 174.09326,294.46632 174.09326,294.46632 L 166.13472,290.48705 L 173.09845,280.53886 L 173.09845,271.58549 L 183.04663,270.59067 L 190.01036,266.6114 L 190.01036,260.64249 L 179.06736,261.63731 L 183.04663,269.59585 L 192.99482,270.59067 L 197.96891,279.54404 L 201.94819,291.48187 L 193.98964,306.40415 C 193.98964,306.40415 189.01554,304.41451 189.01554,309.3886 C 189.01554,314.36269 192,316.35233 192,316.35233 L 193.98964,325.3057 L 198.96373,317.34715 L 201.94819,312.37306 L 203.93782,307.39896 L 207.9171,312.37306 L 214.88083,312.37306 L 213.88601,317.34715 L 212.89119,326.30052 L 220.84974,333.26425 L 225.82383,329.28497 L 230.79793,329.28497 L 229.80311,320.33161 L 225.82383,323.31606 L 221.84456,323.31606 L 222.83938,314.36269 L 221.84456,304.41451 L 219.85492,297.45078 L 217.86528,295.46114 L 209.90674,298.4456 L 203.93782,301.43005 L 204.93264,290.48705 L 210.90155,286.50777 L 211.89637,280.53886 L 206.92228,274.56995 L 204.93264,265.61658 L 210.90155,258.65285 L 204.93264,254.67358 L 206.92228,245.72021 L 212.89119,236.76684 L 222.83938,230.79793 L 234.7772,226.81865 L 243.73057,227.81347 L 252.68394,228.80829 L 251.68912,237.76166 L 261.63731,230.79793 L 265.61658,224.82902 L 268.60104,217.86528 L 285.51295,220.84974 L 294.46632,213.88601 L 292.47668,207.9171 L 281.53368,201.94819 L 277.5544,209.90674 L 270.59067,213.88601 L 263.62694,209.90674 L 253.67876,211.89637 L 249.69948,217.86528 L 243.73057,213.88601 L 237.76166,216.87047 L 232.78756,218.8601 L 221.84456,224.82902 L 210.90155,229.80311 L 202.94301,218.8601 L 192.99482,221.84456 L 187.02591,223.8342 L 173.09845,227.81347 L 165.1399,221.84456 L 163.15026,228.80829 L 157.18135,227.81347 L 156.18653,238.75648 L 144.2487,239.7513 L 135.29534,251.68912 L 138.27979,265.61658 L 141.26425,272.58031 L 131.31606,280.53886 L 128.33161,286.50777 L 137.28497,290.48705 L 144.2487,302.42487 L 153.20207,298.4456 L 157.18135,292.47668 L 166.13472,282.5285 L 167.12953,271.58549 L 162.15544,261.63731 L 163.15026,250.6943 L 161.16062,247.70984 L 164.14508,239.7513 L 173.09845,234.7772 L 174.09326,246.71503 L 171.10881,256.66321 L 165.1399,248.70466 L 152.20725,250.6943 L 143.25389,251.68912 L 132.31088,259.64767 L 121.36788,270.59067 L 124.35233,281.53368 L 124.35233,292.47668 L 130.32124,303.41969 C 130.32124,303.41969 134.30052,307.39896 140.26943,308.39378 C 146.23834,309.3886 136.29016,301.43005 136.29016,301.43005 L 134.30052,295.46114 L 125.34715,299.44041 L 129.32642,307.39896 L 133.3057,320.33161 L 124.35233,313.36788 L 117.3886,303.41969 L 120.37306,302.42487 L 118.38342,294.46632 C 118.38342,294.46632 118.38342,301.43005 113.40933,300.43523 C 108.43523,299.44041 99.481865,295.46114 99.481865,295.46114 L 98.487047,286.50777 L 95.502591,274.56995 L 92.518135,277.5544 L 92.518135,284.51813 L 86.549223,284.51813 L 88.53886,277.5544 C 88.53886,277.5544 83.564767,273.57513 86.549223,269.59585 C 89.533679,265.61658 104.45596,242.73575 104.45596,242.73575 L 116.39378,219.85492 L 118.38342,210.90155 L 122.36269,213.88601 L 133.3057,200.95337 L 145.24352,200.95337 L 152.20725,199.95855 L 167.12953,201.94819 L 176.0829,188.02073 L 186.03109,190.01036 L 189.01554,190.01036 L 197.96891,193.98964 L 221.84456,193.98964 L 234.7772,188.02073 L 251.68912,172.10363 L 263.62694,155.19171 L 274.56995,132.31088 L 280.53886,118.38342 C 280.53886,118.38342 286.50777,108.43523 291.48187,106.4456 C 296.45596,104.45596 297.45078,94.507772 297.45078,94.507772 L 300.43523,90.528497 L 321.32642,90.528497 L 335.25389,87.544041 L 349.18135,76.601036 L 365.09845,64.663212 L 374.05181,54.715026 L 386.98446,59.689119 L 376.04145,63.668394 L 366.09326,76.601036 L 354.15544,92.518135 L 361.11917,104.45596 L 371.06736,120.37306 L 370.07254,133.3057 L 372.06218,153.20207 L 371.06736,175.08808 L 363.10881,185.03627 C 363.10881,185.03627 353.16062,196.97409 353.16062,200.95337 C 353.16062,204.93264 355.15026,217.86528 351.17098,217.86528 C 347.19171,217.86528 344.20725,231.79275 344.20725,231.79275 C 344.20725,231.79275 340.22798,249.69948 339.23316,254.67358 C 338.23834,259.64767 334.25907,280.53886 339.23316,278.54922 C 344.20725,276.55959 347.19171,290.48705 347.19171,290.48705 L 322.32124,295.46114 L 347.19171,294.46632 L 351.17098,307.39896 L 345.20207,316.35233 L 352.1658,325.3057 C 352.1658,325.3057 361.11917,333.26425 365.09845,332.26943 C 369.07772,331.27461 383.00518,328.29016 383.00518,328.29016 L 405.88601,330.27979 L 411.85492,336.2487 L 419.81347,351.17098 L 419.81347,366.09326 L 413.84456,380.02073 C 413.84456,380.02073 399.9171,389.96891 399.9171,394.94301 C 399.9171,399.9171 397.92746,411.85492 397.92746,411.85492 L 389.96891,411.85492 L 384,403.89637 L 384.99482,398.92228 L 380.02073,399.9171 L 369.07772,407.87565 L 359.12953,407.87565 L 354.15544,413.84456 L 349.18135,402.90155 L 360.12435,395.93782 L 364.10363,386.98446 L 358.13472,380.02073 C 358.13472,380.02073 352.1658,380.02073 352.1658,384.99482 C 352.1658,389.96891 342.21762,395.93782 342.21762,395.93782 L 332.26943,412.84974 L 339.23316,436.72539 L 337.24352,453.63731 L 340.22798,463.58549 L 329.28497,471.54404 L 331.27461,479.50259 L 326.30052,482.48705 C 326.30052,482.48705 322.32124,463.58549 322.32124,467.56477 C 322.32124,471.54404 322.32124,481.49223 318.34197,479.50259 C 314.36269,477.51295 303.41969,470.54922 303.41969,470.54922 L 300.43523,477.51295 C 300.43523,477.51295 290.48705,473.53368 290.48705,477.51295 C 290.48705,481.49223 302.42487,485.4715 302.42487,485.4715 L 311.37824,484.47668 L 309.3886,496.41451 L 314.36269,502.38342 L 306.40415,506.36269 L 307.39896,515.31606 L 292.47668,511.33679 L 283.52332,519.29534 L 269.59585,507.35751 L 258.65285,511.33679 L 267.60622,517.3057 L 275.56477,528.2487 L 288.49741,529.24352 L 282.5285,535.21244 L 274.56995,545.16062 L 269.59585,551.12953 L 260.64249,555.10881 L 265.61658,564.06218 C 265.61658,564.06218 257.65803,563.06736 257.65803,572.02073 C 257.65803,580.97409 259.64767,586.94301 259.64767,586.94301 L 262.63212,595.89637 L 256.66321,602.8601 L 260.64249,599.87565 L 276.55959,606.83938 L 270.59067,617.78238 L 260.64249,627.73057 C 260.64249,627.73057 247.70984,619.77202 247.70984,624.74611 C 247.70984,629.72021 241.74093,636.68394 241.74093,636.68394 L 251.68912,643.64767 L 237.76166,655.58549 L 236.76684,662.54922 L 251.68912,656.58031 L 269.59585,663.54404 L 278.54922,671.50259 L 289.49223,677.4715 L 281.53368,670.50777 L 282.5285,662.54922 L 266.6114,656.58031 L 263.62694,654.59067 C 263.62694,654.59067 260.64249,654.59067 263.62694,650.6114 C 266.6114,646.63212 279.54404,645.63731 279.54404,645.63731 L 292.47668,659.56477 L 300.43523,663.54404 L 307.39896,671.50259 L 312.37306,685.43005 L 307.39896,694.38342 L 297.45078,686.42487 L 286.50777,685.43005 L 277.5544,680.45596 L 271.58549,684.43523 L 276.55959,696.37306 L 262.63212,692.39378 L 262.63212,682.4456 L 265.61658,679.46114 L 258.65285,682.4456 C 258.65285,682.4456 251.68912,686.42487 251.68912,690.40415 C 251.68912,694.38342 246.71503,694.38342 246.71503,694.38342 L 234.7772,703.33679 L 233.78238,697.36788 L 223.8342,704.33161 L 209.90674,700.35233 L 208.91192,694.38342 L 193.98964,691.39896 L 180.06218,684.43523 L 169.11917,683.44041 L 155.19171,681.45078 L 150.21762,686.42487 L 139.27461,681.45078 L 137.28497,674.48705 z "
       id="path1933"
       transform="translate(-1126.643,-597.3521)" />
    <path
       transform="translate(-1126.643,-597.3521)"
       id="path2844"
       d="M 139.27461,681.45078 L 137.28497,674.48705 L 147.23316,666.5285 L 139.27461,656.58031 L 138.27979,644.64249 L 142.25907,628.72539 L 142.25907,615.79275 L 141.26425,603.85492 L 141.26425,587.93782 L 140.26943,580.97409 L 138.27979,573.01554 L 131.31606,565.05699 L 121.36788,564.06218 L 111.41969,565.05699 L 104.45596,565.05699 L 107.44041,575.00518 L 112.41451,585.94819 L 120.37306,591.9171 L 117.3886,580.97409 L 119.37824,576 L 115.39896,571.02591 L 113.40933,561.07772 L 106.4456,550.13472 L 96.497409,539.19171 L 98.487047,536.20725 L 96.497409,534.21762 L 89.533679,544.1658 L 95.502591,554.11399 L 99.481865,562.07254 L 86.549223,551.12953 L 68.642487,544.1658 L 77.595855,515.31606 L 81.57513,504.37306 L 82.569948,490.4456 L 88.53886,483.48187 L 93.512953,485.4715 L 108.43523,473.53368 L 109.43005,466.56995 L 106.4456,462.59067 L 106.4456,457.61658 L 100.47668,451.64767 L 98.487047,445.67876 L 98.487047,441.69948 L 90.528497,432.74611 L 82.569948,427.77202 L 78.590674,425.78238 L 78.590674,442.6943 L 78.590674,453.63731 L 82.569948,472.53886 L 93.512953,474.5285 L 89.533679,478.50777 L 79.585492,485.4715 L 77.595855,474.5285 L 75.606218,463.58549 L 75.606218,455.62694 L 72.621762,443.68912 L 72.621762,438.71503 L 73.61658,419.81347 L 76.601036,402.90155 L 76.601036,393.94819 L 75.606218,381.01554 L 76.601036,376.04145 L 88.53886,378.03109 L 91.523316,385.98964 L 98.487047,375.04663 L 90.528497,368.0829 L 84.559585,362.11399 L 89.533679,360.12435 L 80.580311,351.17098 L 78.590674,368.0829 L 75.606218,372.06218 L 73.61658,323.31606 L 75.606218,313.36788 L 80.580311,302.42487 L 89.533679,292.47668 L 86.549223,308.39378 L 94.507772,314.36269 L 97.492228,321.32642 L 107.44041,319.33679 L 117.3886,325.3057 L 127.33679,329.28497 L 128.33161,322.32124 L 134.30052,336.2487 L 140.26943,334.25907 L 141.26425,326.30052 L 141.26425,321.32642 L 137.28497,325.3057 L 136.29016,341.2228 L 146.23834,344.20725 L 154.19689,340.22798 L 152.20725,334.25907 L 152.20725,330.27979 L 150.21762,323.31606 L 144.2487,314.36269 L 149.2228,312.37306 C 149.2228,312.37306 151.21244,316.35233 154.19689,311.37824 C 157.18135,306.40415 155.19171,300.43523 159.17098,300.43523 C 163.15026,300.43523 174.09326,294.46632 174.09326,294.46632 L 166.13472,290.48705 L 173.09845,280.53886 L 173.09845,271.58549 L 183.04663,270.59067 L 190.01036,266.6114 L 190.01036,260.64249 L 179.06736,261.63731 L 183.04663,269.59585 L 192.99482,270.59067 L 197.96891,279.54404 L 201.94819,291.48187 L 193.98964,306.40415 C 193.98964,306.40415 189.01554,304.41451 189.01554,309.3886 C 189.01554,314.36269 192,316.35233 192,316.35233 L 193.98964,325.3057 L 198.96373,317.34715 L 201.94819,312.37306 L 203.93782,307.39896 L 207.9171,312.37306 L 214.88083,312.37306 L 213.88601,317.34715 L 212.89119,326.30052 L 220.84974,333.26425 L 225.82383,329.28497 L 230.79793,329.28497 L 229.80311,320.33161 L 225.82383,323.31606 L 221.84456,323.31606 L 222.83938,314.36269 L 221.84456,304.41451 L 219.85492,297.45078 L 217.86528,295.46114 L 209.90674,298.4456 L 203.93782,301.43005 L 204.93264,290.48705 L 210.90155,286.50777 L 211.89637,280.53886 L 206.92228,274.56995 L 204.93264,265.61658 L 210.90155,258.65285 L 204.93264,254.67358 L 206.92228,245.72021 L 212.89119,236.76684 L 222.83938,230.79793 L 234.7772,226.81865 L 243.73057,227.81347 L 252.68394,228.80829 L 251.68912,237.76166 L 261.63731,230.79793 L 265.61658,224.82902 L 268.60104,217.86528 L 285.51295,220.84974 L 294.46632,213.88601 L 292.47668,207.9171 L 281.53368,201.94819 L 277.5544,209.90674 L 270.59067,213.88601 L 263.62694,209.90674 L 253.67876,211.89637 L 249.69948,217.86528 L 243.73057,213.88601 L 237.76166,216.87047 L 232.78756,218.8601 L 221.84456,224.82902 L 210.90155,229.80311 L 202.94301,218.8601 L 192.99482,221.84456 L 187.02591,223.8342 L 173.09845,227.81347 L 165.1399,221.84456 L 163.15026,228.80829 L 157.18135,227.81347 L 156.18653,238.75648 L 144.2487,239.7513 L 135.29534,251.68912 L 138.27979,265.61658 L 141.26425,272.58031 L 131.31606,280.53886 L 128.33161,286.50777 L 137.28497,290.48705 L 144.2487,302.42487 L 153.20207,298.4456 L 157.18135,292.47668 L 166.13472,282.5285 L 167.12953,271.58549 L 162.15544,261.63731 L 163.15026,250.6943 L 161.16062,247.70984 L 164.14508,239.7513 L 173.09845,234.7772 L 174.09326,246.71503 L 171.10881,256.66321 L 165.1399,248.70466 L 152.20725,250.6943 L 143.25389,251.68912 L 132.31088,259.64767 L 121.36788,270.59067 L 124.35233,281.53368 L 124.35233,292.47668 L 130.32124,303.41969 C 130.32124,303.41969 134.30052,307.39896 140.26943,308.39378 C 146.23834,309.3886 136.29016,301.43005 136.29016,301.43005 L 134.30052,295.46114 L 125.34715,299.44041 L 129.32642,307.39896 L 133.3057,320.33161 L 124.35233,313.36788 L 117.3886,303.41969 L 120.37306,302.42487 L 118.38342,294.46632 C 118.38342,294.46632 118.38342,301.43005 113.40933,300.43523 C 108.43523,299.44041 99.481865,295.46114 99.481865,295.46114 L 98.487047,286.50777 L 95.502591,274.56995 L 92.518135,277.5544 L 92.518135,284.51813 L 86.549223,284.51813 L 88.53886,277.5544 C 88.53886,277.5544 83.564767,273.57513 86.549223,269.59585 C 89.533679,265.61658 104.45596,242.73575 104.45596,242.73575 L 116.39378,219.85492 L 118.38342,210.90155 L 122.36269,213.88601 L 133.3057,200.95337 L 145.24352,200.95337 L 152.20725,199.95855 L 167.12953,201.94819 L 176.0829,188.02073 L 186.03109,190.01036 L 189.01554,190.01036 L 197.96891,193.98964 L 221.84456,193.98964 L 234.7772,188.02073 L 251.68912,172.10363 L 263.62694,155.19171 L 274.56995,132.31088 L 280.53886,118.38342 C 280.53886,118.38342 286.50777,108.43523 291.48187,106.4456 C 296.45596,104.45596 297.45078,94.507772 297.45078,94.507772 L 300.43523,90.528497 L 321.32642,90.528497 L 335.25389,87.544041 L 349.18135,76.601036 L 365.09845,64.663212 L 374.05181,54.715026 L 386.98446,59.689119 L 376.04145,63.668394 L 366.09326,76.601036 L 354.15544,92.518135 L 361.11917,104.45596 L 371.06736,120.37306 L 370.07254,133.3057 L 372.06218,153.20207 L 371.06736,175.08808 L 363.10881,185.03627 C 363.10881,185.03627 353.16062,196.97409 353.16062,200.95337 C 353.16062,204.93264 355.15026,217.86528 351.17098,217.86528 C 347.19171,217.86528 344.20725,231.79275 344.20725,231.79275 C 344.20725,231.79275 340.22798,249.69948 339.23316,254.67358 C 338.23834,259.64767 334.25907,280.53886 339.23316,278.54922 C 344.20725,276.55959 347.19171,290.48705 347.19171,290.48705 L 322.32124,295.46114 L 347.19171,294.46632 L 351.17098,307.39896 L 345.20207,316.35233 L 352.1658,325.3057 C 352.1658,325.3057 361.11917,333.26425 365.09845,332.26943 C 369.07772,331.27461 383.00518,328.29016 383.00518,328.29016 L 405.88601,330.27979 L 411.85492,336.2487 L 419.81347,351.17098 L 419.81347,366.09326 L 413.84456,380.02073 C 413.84456,380.02073 399.9171,389.96891 399.9171,394.94301 C 399.9171,399.9171 397.92746,411.85492 397.92746,411.85492 L 389.96891,411.85492 L 384,403.89637 L 384.99482,398.92228 L 380.02073,399.9171 L 369.07772,407.87565 L 359.12953,407.87565 L 354.15544,413.84456 L 349.18135,402.90155 L 360.12435,395.93782 L 364.10363,386.98446 L 358.13472,380.02073 C 358.13472,380.02073 352.1658,380.02073 352.1658,384.99482 C 352.1658,389.96891 342.21762,395.93782 342.21762,395.93782 L 332.26943,412.84974 L 339.23316,436.72539 L 337.24352,453.63731 L 340.22798,463.58549 L 329.28497,471.54404 L 331.27461,479.50259 L 326.30052,482.48705 C 326.30052,482.48705 322.32124,463.58549 322.32124,467.56477 C 322.32124,471.54404 322.32124,481.49223 318.34197,479.50259 C 314.36269,477.51295 303.41969,470.54922 303.41969,470.54922 L 300.43523,477.51295 C 300.43523,477.51295 290.48705,473.53368 290.48705,477.51295 C 290.48705,481.49223 302.42487,485.4715 302.42487,485.4715 L 311.37824,484.47668 L 309.3886,496.41451 L 314.36269,502.38342 L 306.40415,506.36269 L 307.39896,515.31606 L 292.47668,511.33679 L 283.52332,519.29534 L 269.59585,507.35751 L 258.65285,511.33679 L 267.60622,517.3057 L 275.56477,528.2487 L 288.49741,529.24352 L 282.5285,535.21244 L 274.56995,545.16062 L 269.59585,551.12953 L 260.64249,555.10881 L 265.61658,564.06218 C 265.61658,564.06218 257.65803,563.06736 257.65803,572.02073 C 257.65803,580.97409 259.64767,586.94301 259.64767,586.94301 L 262.63212,595.89637 L 256.66321,602.8601 L 260.64249,599.87565 L 276.55959,606.83938 L 270.59067,617.78238 L 260.64249,627.73057 C 260.64249,627.73057 247.70984,619.77202 247.70984,624.74611 C 247.70984,629.72021 241.74093,636.68394 241.74093,636.68394 L 251.68912,643.64767 L 237.76166,655.58549 L 236.76684,662.54922 L 251.68912,656.58031 L 269.59585,663.54404 L 278.54922,671.50259 L 289.49223,677.4715 L 281.53368,670.50777 L 282.5285,662.54922 L 266.6114,656.58031 L 263.62694,654.59067 C 263.62694,654.59067 260.64249,654.59067 263.62694,650.6114 C 266.6114,646.63212 279.54404,645.63731 279.54404,645.63731 L 292.47668,659.56477 L 300.43523,663.54404 L 307.39896,671.50259 L 312.37306,685.43005 L 307.39896,694.38342 L 297.45078,686.42487 L 286.50777,685.43005 L 277.5544,680.45596 L 271.58549,684.43523 L 276.55959,696.37306 L 262.63212,692.39378 L 262.63212,682.4456 L 265.61658,679.46114 L 258.65285,682.4456"
       style="fill:none;fill-rule:evenodd;stroke:blue;stroke-width:1px;stroke-linecap:butt;stroke-linejoin:miter;stroke-opacity:1"
       sodipodi:nodetypes="cccccccccccccccccccccccccccccccccccccccccccccccccccccccccccccccccccccccccccccccccccccccccccccccsscccccccccccccscccccccccccccccccccccccccccccccccccccccccccccccccccccccccccccccccccccccccccccccccccccccscccccccccscccccccsccccccccccccccccccscccccccccccccccccsscssccccccsccccccsccccccccccccsccccccccssccsccccccccccccccccccscccccccsccccccccccccsccccccccccccccc" />
    <path
       sodipodi:nodetypes="cscccccccccccc"
       style="fill:#f7d3aa;fill-rule:evenodd;stroke:none;stroke-width:2;stroke-linecap:butt;stroke-linejoin:miter;stroke-opacity:1;stroke-miterlimit:4;stroke-dasharray:none;fill-opacity:1"
       d="M 180.31275,770.34511 L 180.31275,765.13376 L 176.92538,761.48581 L 170.41119,757.5773 L 169.10835,751.84481 L 164.93927,749.23914 L 161.81246,751.84481 L 158.68565,747.67573 L 160.50962,746.37289 L 161.29132,744.02778 L 161.55189,739.077 L 159.20678,737.5136 L 157.64338,735.16849 L 151.65032,732.04168 L 152.17146,725.26692 L 150.08692,724.74578 L 149.82635,728.91487 L 148.52351,732.82338 L 146.43897,733.08395 L 143.57273,736.73189 L 142.00932,740.37984 L 139.66421,742.46438 L 133.15002,742.20381 L 130.80492,744.54892 L 125.59357,745.07005 C 125.59357,745.07005 125.59357,741.16154 125.59357,740.11927 C 125.59357,739.077 130.54435,740.11927 130.54435,740.11927 L 131.58662,737.5136 L 137.05854,737.77416 L 140.96705,738.55587 L 141.74875,733.08395 L 144.09386,731.25997 L 147.74181,728.6543 L 145.65727,721.35841 L 148.52351,716.40762 L 146.1784,713.02024 L 146.96011,709.3723 L 143.05159,707.54833 L 139.92478,702.33697 L 134.974,697.64676 L 132.88946,689.04803 L 128.98094,689.56916 L 123.24846,691.39314 L 116.73427,693.21711 L 109.95951,695.56222 L 103.70589,690.0903 L 102.92419,691.6537 L 97.712836,695.30165 L 98.755107,702.07641 L 98.755107,704.42151 L 97.973404,709.63287 L 99.276242,712.23854 L 95.367728,719.53443 L 95.628296,707.80889 L 95.367728,682.79441 C 95.367728,682.79441 97.712836,679.6676 98.755107,679.40703 C 99.797377,679.14646 101.36078,670.28716 101.36078,670.28716 L 106.051,661.42787 L 106.31157,654.13197 L 111.00178,652.04743 L 111.00178,655.95595 L 114.9103,658.82219 L 113.08632,662.20957 L 106.051,667.68149 C 106.051,667.68149 104.48759,683.05497 104.48759,684.35781 C 104.48759,685.66065 107.35384,685.40008 107.35384,685.40008 L 109.17781,685.66065 L 109.95951,688.26633 L 119.60051,688.52689 L 121.94562,685.66065 L 127.93867,685.92122 L 138.36138,686.96349 L 139.27461,681.45078 L 150.21762,686.42487 L 155.19171,681.45078 L 169.11917,683.44041 L 180.06218,684.43523 L 193.98964,691.39896 L 208.91192,694.38342 L 209.90674,700.35233 L 223.8342,704.33161 L 233.78238,697.36788 L 234.7772,703.33679 L 246.71503,694.38342 C 246.71503,694.38342 251.68912,694.38342 251.68912,690.40415 C 251.68912,686.42487 258.65285,682.4456 258.65285,682.4456 L 257.44075,690.872 L 256.65905,696.34392 L 261.60983,700.513 L 271.5114,702.07641 L 276.46218,704.68208 L 285.06091,711.19627 L 289.49056,716.14705 L 294.96248,712.49911 L 295.22305,707.54833 L 302.25837,710.9357 L 303.04008,715.36535 L 305.12462,720.5767 L 305.38518,725.52749 L 310.33597,726.83032 L 312.42051,734.38678 L 309.55427,737.5136 L 309.55427,741.68268 L 312.15994,743.76722 L 309.03313,745.85176 L 309.81483,754.71105 L 309.81483,759.40127 L 307.20916,762.00695 L 306.94859,766.69716 L 304.34291,768.26057 L 304.60348,771.12681"
       id="path4618"
       transform="translate(-1126.643,-597.3521)" />
    <path
       transform="translate(-1126.643,-597.3521)"
       id="path5505"
       d="M 258.65285,682.4456 L 257.44075,690.872 L 256.65905,696.34392 L 261.60983,700.513 L 271.5114,702.07641 L 276.46218,704.68208 L 285.06091,711.19627 L 289.49056,716.14705 L 294.96248,712.49911 L 295.22305,707.54833 L 302.25837,710.9357 L 303.04008,715.36535 L 305.12462,720.5767 L 305.38518,725.52749 L 310.33597,726.83032 L 312.42051,734.38678 L 309.55427,737.5136 L 309.55427,741.68268 L 312.15994,743.76722 L 309.03313,745.85176 L 309.81483,754.71105 L 309.81483,759.40127 L 307.20916,762.00695 L 306.94859,766.69716 L 304.34291,768.26057 L 304.60348,771.12681 M 180.31275,770.34511 L 180.31275,765.13376 L 176.92538,761.48581 L 170.41119,757.5773 L 169.10835,751.84481 L 164.93927,749.23914 L 161.81246,751.84481 L 158.68565,747.67573 L 160.50962,746.37289 L 161.29132,744.02778 L 161.55189,739.077 L 159.20678,737.5136 L 157.64338,735.16849 L 151.65032,732.04168 L 152.17146,725.26692 L 150.08692,724.74578 L 149.82635,728.91487 L 148.52351,732.82338 L 146.43897,733.08395 L 143.57273,736.73189 L 142.00932,740.37984 L 139.66421,742.46438 L 133.15002,742.20381 L 130.80492,744.54892 L 125.59357,745.07005 C 125.59357,745.07005 125.59357,741.16154 125.59357,740.11927 C 125.59357,739.077 130.54435,740.11927 130.54435,740.11927 L 131.58662,737.5136 L 137.05854,737.77416 L 140.96705,738.55587 L 141.74875,733.08395 L 144.09386,731.25997 L 147.74181,728.6543 L 145.65727,721.35841 L 148.52351,716.40762 L 146.1784,713.02024 L 146.96011,709.3723 L 143.05159,707.54833 L 139.92478,702.33697 L 134.974,697.64676 L 132.88946,689.04803 L 128.98094,689.56916 L 123.24846,691.39314 L 116.73427,693.21711 L 109.95951,695.56222 L 103.70589,690.0903 L 102.92419,691.6537 L 97.712836,695.30165 L 98.755107,702.07641 L 98.755107,704.42151 L 97.973404,709.63287 L 99.276242,712.23854 L 95.367728,719.53443 L 95.628296,707.80889 L 95.367728,682.79441 C 95.367728,682.79441 97.712836,679.6676 98.755107,679.40703 C 99.797377,679.14646 101.36078,670.28716 101.36078,670.28716 L 106.051,661.42787 L 106.31157,654.13197 L 111.00178,652.04743 L 111.00178,655.95595 L 114.9103,658.82219 L 113.08632,662.20957 L 106.051,667.68149 C 106.051,667.68149 104.48759,683.05497 104.48759,684.35781 C 104.48759,685.66065 107.35384,685.40008 107.35384,685.40008 L 109.17781,685.66065 L 109.95951,688.26633 L 119.60051,688.52689 L 121.94562,685.66065 L 127.93867,685.92122 L 138.36138,686.96349 L 139.27461,681.45078"
       style="fill:none;fill-rule:evenodd;stroke:blue;stroke-width:1;stroke-linecap:butt;stroke-linejoin:miter;stroke-opacity:1;stroke-miterlimit:4;stroke-dasharray:none;fill-opacity:1"
       sodipodi:nodetypes="cccccccccccccccccccccccccccscccccccccccccccccccccccscccccccccccccccccccccccccccccsccccccccscccccccc" />
    <path
       transform="translate(-1126.643,-597.3521)"
       id="path3731"
       d="M 258.65285,682.4456 C 258.65285,682.4456 251.68912,686.42487 251.68912,690.40415 C 251.68912,694.38342 246.71503,694.38342 246.71503,694.38342 L 234.7772,703.33679 L 233.78238,697.36788 L 223.8342,704.33161 L 209.90674,700.35233 L 208.91192,694.38342 L 193.98964,691.39896 L 180.06218,684.43523 L 169.11917,683.44041 L 155.19171,681.45078 L 150.21762,686.42487 L 139.27461,681.45078"
       style="fill:none;fill-rule:evenodd;stroke:#a08070;stroke-width:2;stroke-linecap:butt;stroke-linejoin:miter;stroke-opacity:1;stroke-miterlimit:4;stroke-dasharray:none"
       sodipodi:nodetypes="cscccccccccccc" />
    <path
       style="fill:#f7d3aa;fill-rule:evenodd;stroke:blue;stroke-width:1px;stroke-linecap:butt;stroke-linejoin:miter;stroke-opacity:1;fill-opacity:1"
       d="M 178.19658,769.963 L 178.19658,766.69133 L 176.34264,764.29212 L 170.12648,764.074 L 165.6552,764.29212 L 163.36504,766.58228 L 163.58315,769.963"
       id="path6393"
       transform="translate(-1126.643,-597.3521)" />
    <path
       style="fill:#f7d3aa;fill-rule:evenodd;stroke:blue;stroke-width:1px;stroke-linecap:butt;stroke-linejoin:miter;stroke-opacity:1;fill-opacity:1"
       d="M 163.4741,756.33107 L 158.13038,756.76729 L 156.93077,759.60273 L 162.16543,760.25706 L 164.45559,758.62123 L 163.4741,756.33107 z "
       id="path6395"
       transform="translate(-1126.643,-597.3521)" />
    <path
       style="fill:#f7d3aa;fill-rule:evenodd;stroke:blue;stroke-width:1px;stroke-linecap:butt;stroke-linejoin:miter;stroke-opacity:1;fill-opacity:1"
       d="M 131.95708,769.74489 L 131.84802,765.0555 L 137.30079,761.02045 L 142.53545,758.83934 L 146.5705,756.65823 L 148.96972,760.58423 L 146.78861,763.20156 L 146.13428,765.60078 L 146.13428,769.19961"
       id="path6397"
       transform="translate(-1126.643,-597.3521)" />
    <path
       style="fill:#ffd0d0;fill-rule:evenodd;stroke:blue;stroke-width:1px;stroke-linecap:butt;stroke-linejoin:miter;stroke-opacity:1;fill-opacity:1"
       d="M 119.30664,769.09055 L 119.4157,761.45667 L 117.34365,759.82084 C 117.34365,759.82084 117.34365,755.78579 117.34365,755.24051 C 117.34365,754.69524 117.67081,751.96885 116.90743,751.96885 C 116.14404,751.96885 114.72632,753.05941 114.72632,753.05941 L 113.09048,754.80429 L 113.09048,757.9669 L 115.59876,759.49368 L 115.70782,764.83739 L 115.92593,769.19961"
       id="path6399"
       transform="translate(-1126.643,-597.3521)" />
    <path
       style="fill:#f7d3aa;fill-rule:evenodd;stroke:blue;stroke-width:1px;stroke-linecap:butt;stroke-linejoin:miter;stroke-opacity:1;fill-opacity:1"
       d="M 123.77792,752.40507 L 130.21219,752.29602 L 132.82952,755.78579 C 132.82952,755.78579 132.93857,757.9669 132.3933,757.85784 C 131.84802,757.74879 128.4673,757.74879 128.4673,757.74879 L 123.77792,755.0224 L 123.77792,752.40507 z "
       id="path6401"
       transform="translate(-1126.643,-597.3521)" />
    <path
       style="fill:#f7d3aa;fill-rule:evenodd;stroke:blue;stroke-width:1px;stroke-linecap:butt;stroke-linejoin:miter;stroke-opacity:1;fill-opacity:1"
       d="M 149.84217,738.22787 L 147.33389,738.99125 L 147.22484,742.04481 L 150.16933,742.37197 L 151.58705,739.75464 L 149.84217,738.22787 z "
       id="path6403"
       transform="translate(-1126.643,-597.3521)" />
    <path
       style="fill:#f7d3aa;fill-rule:evenodd;stroke:blue;stroke-width:1px;stroke-linecap:butt;stroke-linejoin:miter;stroke-opacity:1;fill-opacity:1"
       d="M 104.58416,724.15972 L 100.00383,727.54043 L 97.059336,730.15776 L 95.423505,734.73809 L 96.841225,737.35542 L 99.894777,741.60858 L 101.85778,746.18891 L 106.54716,746.07986 L 109.49166,741.93575 L 106.65621,738.11881 L 105.23849,733.42943 L 103.38455,730.15776 L 103.2755,728.19477 L 104.91133,726.01366 L 104.58416,724.15972 z "
       id="path6405"
       transform="translate(-1126.643,-597.3521)" />
    <path
       style="fill:#f7d3aa;fill-rule:evenodd;stroke:blue;stroke-width:1px;stroke-linecap:butt;stroke-linejoin:miter;stroke-opacity:1;fill-opacity:1"
       d="M 116.14404,715.21717 L 112.65426,716.19867 L 110.14599,719.47033 C 110.14599,719.47033 109.60071,722.85105 109.60071,723.28727 C 109.60071,723.72349 110.14599,727.64949 110.14599,727.64949 L 113.19954,728.63099 L 114.94443,730.59399 L 119.85192,732.44793 L 129.23069,732.44793 L 133.04763,729.93965 C 133.04763,729.93965 132.61141,725.46838 133.04763,725.25027 C 133.48385,725.03216 135.11968,723.06916 135.11968,722.63294 C 135.11968,722.19672 133.15668,719.7975 133.15668,719.36128 C 133.15668,718.92505 129.55786,714.89 129.55786,714.89 L 121.92398,714.67189 L 116.14404,715.21717 z "
       id="path6407"
       transform="translate(-1126.643,-597.3521)" />
    <path
       style="fill:#ffffd0;fill-rule:evenodd;stroke:blue;stroke-width:1px;stroke-linecap:butt;stroke-linejoin:miter;stroke-opacity:1;fill-opacity:1"
       d="M 124.74794,618.00016 L 120.48001,620.48978 C 120.48001,620.48978 120.74676,624.22422 120.56893,624.57988 C 120.3911,624.93554 118.34605,627.24734 118.25713,628.31432 C 118.16822,629.3813 118.43496,643.07423 118.43496,643.07423 L 119.85761,645.91951 L 123.14747,650.63202 C 123.14747,650.63202 126.43733,650.27636 126.43733,649.83178 C 126.43733,649.38721 129.99393,647.16433 130.17176,646.54192 C 130.34959,645.91951 130.61634,644.0523 130.26068,643.60772 C 129.90502,643.16315 128.12671,642.18508 128.21563,641.7405 C 128.30455,641.29593 129.90502,638.00607 129.90502,638.00607 C 129.90502,638.00607 127.59322,634.44946 127.50431,634.0938 C 127.41539,633.73814 130.08285,631.51526 130.08285,631.51526 L 130.08285,627.06951 C 130.08285,627.06951 132.7503,625.2912 132.7503,624.93554 C 132.7503,624.57988 132.92813,620.75653 131.86115,620.48978 C 130.79417,620.22304 127.77105,620.40087 127.05973,620.13412 C 126.34841,619.86738 124.74794,618.00016 124.74794,618.00016 z "
       id="path7294"
       transform="translate(-1126.643,-597.3521)" />
    <path
       style="fill:#ffffd0;fill-rule:evenodd;stroke:blue;stroke-width:1px;stroke-linecap:butt;stroke-linejoin:miter;stroke-opacity:1;fill-opacity:1"
       d="M 128.83804,599.95039 L 133.01705,599.77256 L 132.21681,602.61784 L 128.92695,606.88577 L 125.90384,605.81879 L 127.50431,602.26218 L 128.83804,599.95039 z "
       id="path7296"
       transform="translate(-1126.643,-597.3521)" />
    <path
       style="fill:#ffffd0;fill-rule:evenodd;stroke:blue;stroke-width:1px;stroke-linecap:butt;stroke-linejoin:miter;stroke-opacity:1;fill-opacity:1"
       d="M 411.72348,167.27128 L 415.43988,160.90032 L 423.40358,156.65301 L 431.36729,153.99844 L 433.49094,152.4057 L 444.64012,152.93662 L 447.56015,149.75113 L 452.86929,152.4057 L 453.13474,160.10395 L 447.29469,156.91847 L 441.45464,159.30758 L 436.94188,161.16578 L 439.8619,166.47491 L 434.81822,170.45676 L 432.16366,178.42047 C 432.16366,178.42047 428.97817,180.54412 428.1818,178.68592 C 427.38543,176.82773 424.19995,172.84588 424.19995,172.84588 L 418.62536,171.51859 L 417.56353,169.39494 L 411.72348,167.27128 z "
       id="path7298"
       transform="translate(-1126.643,-597.3521)" />
    <path
       style="fill:#ffffd0;fill-rule:evenodd;stroke:blue;stroke-width:1px;stroke-linecap:butt;stroke-linejoin:miter;stroke-opacity:1;fill-opacity:1"
       d="M 491.09506,289.11595 L 496.13874,286.19592 L 504.10245,286.19592 L 508.61521,284.60318 L 507.28793,288.31958 L 502.5097,292.56689 L 498.2624,297.34511 L 493.21872,293.62871 L 492.95326,291.2396 L 491.09506,289.11595 z "
       id="path7300"
       transform="translate(-1126.643,-597.3521)" />
    <path
       style="fill:#ffffd0;fill-rule:evenodd;stroke:blue;stroke-width:1px;stroke-linecap:butt;stroke-linejoin:miter;stroke-opacity:1;fill-opacity:1"
       d="M 373.89589,444.92491 L 371.47585,450.16833 L 371.47585,460.65516 L 375.10591,461.86518 L 379.13931,468.31861 L 377.12261,473.15869 L 375.50925,477.99877 L 372.28253,479.20878 C 372.28253,479.20878 371.07251,490.90564 371.07251,492.51899 C 371.07251,494.13235 373.08921,499.37577 373.08921,499.37577 L 381.96268,498.56909 L 383.97938,493.32567 L 383.97938,485.66222 L 388.41612,479.20878 L 390.02948,471.14199 L 385.1894,472.35201 L 382.36602,467.91527 L 383.57604,463.88188 L 377.92929,458.23512 L 375.10591,453.79838 L 373.89589,444.92491 z "
       id="path7302"
       transform="translate(-1126.643,-597.3521)" />
    <path
       style="fill:#ffffd0;fill-rule:evenodd;stroke:blue;stroke-width:1px;stroke-linecap:butt;stroke-linejoin:miter;stroke-opacity:1;fill-opacity:1"
       d="M 438.0269,465.49523 L 446.09369,465.0919 L 450.53043,471.94867 L 456.58053,479.61212 L 455.77385,482.4355 L 449.32041,477.19209 L 446.49703,476.38541 L 442.0603,470.33531 L 438.83358,469.93197 L 438.0269,465.49523 z "
       id="path7304"
       transform="translate(-1126.643,-597.3521)" />
    <path
       style="fill:#ffffd0;fill-rule:evenodd;stroke:blue;stroke-width:1px;stroke-linecap:butt;stroke-linejoin:miter;stroke-opacity:1;fill-opacity:1"
       d="M 344.45209,491.71231 L 342.43539,496.14905 L 340.4187,500.58579 L 334.3686,500.58579 L 341.22538,503.81251 L 345.66211,506.23254 C 345.66211,506.23254 347.67881,503.81251 347.67881,501.79581 C 347.67881,499.77911 347.67881,495.34237 347.67881,495.34237 L 344.45209,491.71231 z "
       id="path7306"
       transform="translate(-1126.643,-597.3521)" />
    <path
       style="fill:#ffffd0;fill-rule:evenodd;stroke:blue;stroke-width:1px;stroke-linecap:butt;stroke-linejoin:miter;stroke-opacity:1;fill-opacity:1"
       d="M 337.99866,531.2396 L 331.14188,534.46632 L 323.47843,540.51642 L 318.63835,540.91976 L 312.18492,543.74313 L 306.9415,547.37319 L 302.10143,551.00325 L 296.45467,555.03665 L 290.00123,551.80993 L 287.17786,544.14647 L 283.14446,544.14647 L 281.5311,546.16317 L 278.70772,546.16317 L 278.30438,551.80993 L 274.67433,559.47338 L 276.69103,564.7168 L 283.5478,565.92682 L 283.95114,573.18693 L 280.72442,576.41365 L 284.75782,578.02701 L 287.5812,580.44705 L 281.12776,582.86708 L 280.32108,586.90048 L 285.96784,590.1272 L 290.40457,588.51384 L 294.43797,591.33722 L 289.19456,594.96727 L 293.63129,599.00067 L 292.42127,605.85745 L 293.63129,611.90754 L 303.71478,619.16766 L 306.13482,624.41107 L 313.79828,624.81441 L 320.25171,622.39437 L 326.30181,632.8812 L 326.30181,637.72128 L 321.05839,637.31794 L 315.81497,648.20811 L 327.91517,646.99809 L 334.77194,648.20811 L 333.56192,644.57806 L 345.66211,650.22481 C 345.66211,650.22481 353.32557,649.01479 352.92223,650.62815 C 352.51889,652.24151 354.93892,654.25821 354.93892,654.25821 L 365.42576,655.46823 L 370.66917,657.88827 L 375.10591,657.48493 L 382.76936,651.83817 L 388.81946,655.46823 L 385.1894,660.3083 L 384.38272,665.95506 L 391.64284,663.93836 L 391.2395,670.79514 C 391.2395,670.79514 389.2228,672.00515 386.39942,672.40849 C 383.57604,672.81183 380.34932,674.02185 378.73597,674.02185 C 377.12261,674.02185 372.28253,669.58512 372.28253,669.58512 L 370.66917,664.74504 L 360.58568,661.11498 L 371.47585,661.11498 C 371.47585,661.11498 376.71927,661.51832 376.71927,659.50162 C 376.71927,657.48493 378.73597,652.64485 378.73597,652.64485 C 378.73597,652.64485 383.97938,650.22481 385.59274,650.22481 C 387.2061,650.22481 396.48291,650.22481 396.48291,650.22481 C 396.48291,650.22481 394.86955,645.78807 396.88625,644.57806 C 398.90295,643.36804 401.72633,641.75468 401.72633,641.75468 L 400.11297,638.9313 L 401.72633,631.26785 C 401.72633,631.26785 404.14637,627.63779 404.95305,624.41107 C 405.75973,621.18435 405.75973,617.15096 405.75973,617.15096 L 405.35639,609.08416 L 401.32299,602.63073 L 402.12967,597.38731 C 402.12967,597.38731 404.54971,603.43741 406.5664,603.43741 C 408.5831,603.43741 410.5998,601.42071 410.5998,601.42071 C 410.5998,601.42071 406.5664,593.75726 405.75973,592.1439 C 404.95305,590.53054 400.11297,581.65706 400.11297,581.65706 L 394.86955,573.99361 L 387.60944,566.7335 L 380.34932,565.12014 C 380.34932,565.12014 374.70257,559.47338 377.52595,559.47338 C 380.34932,559.47338 383.57604,559.47338 383.57604,557.05334 C 383.57604,554.63331 384.38272,548.17987 383.57604,546.56651 C 382.76936,544.95315 382.76936,540.51642 382.76936,540.51642 L 380.34932,531.2396 L 385.99608,534.46632 L 390.43282,542.53311 L 392.44952,551.00325 L 395.27289,554.63331 L 398.90295,558.26336 L 392.44952,561.49008 L 385.59274,564.7168 C 385.59274,564.7168 380.34932,568.34685 378.73597,568.34685 C 377.12261,568.34685 372.68587,567.94352 372.68587,567.94352 L 374.70257,562.29676 L 369.45915,563.10344 L 368.24913,560.28006 L 365.02242,567.54018 C 365.02242,567.54018 358.56898,570.76689 358.16564,569.15353 C 357.7623,567.54018 357.7623,562.29676 357.7623,562.29676 C 357.7623,562.29676 360.98902,558.26336 362.60238,558.26336 C 364.21574,558.26336 368.24913,557.86002 367.44245,556.24666 C 366.63578,554.63331 360.98902,549.79323 362.60238,549.79323 C 364.21574,549.79323 368.24913,546.16317 367.44245,544.54981 C 366.63578,542.93645 359.37566,538.90306 359.37566,538.90306 L 352.11555,534.06298 L 348.08215,531.64294 L 344.85543,535.67634 L 345.25877,539.3064 L 341.22538,539.3064 L 342.43539,534.46632 L 337.99866,531.2396 z "
       id="path7308"
       transform="translate(-1126.643,-597.3521)" />
    <path
       style="fill:#ffffd0;fill-rule:evenodd;stroke:blue;stroke-width:1px;stroke-linecap:butt;stroke-linejoin:miter;stroke-opacity:1;fill-opacity:1"
       d="M 306.9415,628.84781 L 304.52146,633.68788 L 302.10143,636.10792 C 302.10143,636.10792 307.34484,638.12462 309.36154,637.72128 C 311.37824,637.31794 312.58826,633.68788 312.58826,633.68788 L 306.9415,628.84781 z "
       id="path7310"
       transform="translate(-1126.643,-597.3521)" />
    <path
       style="fill:#ffffd0;fill-rule:evenodd;stroke:blue;stroke-width:1px;stroke-linecap:butt;stroke-linejoin:miter;stroke-opacity:1;fill-opacity:1"
       d="M 334.77194,653.45153 L 333.56192,657.88827 C 333.56192,657.88827 331.94856,660.3083 336.78864,660.3083 C 341.62871,660.3083 342.43539,661.92166 342.43539,661.92166 L 348.88883,662.72834 L 348.88883,659.09828 L 342.43539,657.48493 L 338.80534,655.87157 L 334.77194,653.45153 z "
       id="path7312"
       transform="translate(-1126.643,-597.3521)" />
    <path
       style="fill:#ffffd0;fill-rule:evenodd;stroke:blue;stroke-width:1px;stroke-linecap:butt;stroke-linejoin:miter;stroke-opacity:1;fill-opacity:1"
       d="M 322.26841,649.41813 L 320.25171,653.04819 L 321.86507,658.29161 L 327.10849,658.69494 L 327.10849,653.04819 L 324.68845,652.24151 L 322.26841,649.41813 z "
       id="path7314"
       transform="translate(-1126.643,-597.3521)" />
    <path
       style="fill:#ffffd0;fill-rule:evenodd;stroke:blue;stroke-width:1px;stroke-linecap:butt;stroke-linejoin:miter;stroke-opacity:1;fill-opacity:1"
       d="M 331.14188,669.18178 L 331.14188,674.42519 L 336.3853,678.86193 L 336.3853,683.70201 L 351.30887,696.20554 L 359.779,703.06231 L 360.58568,698.22223 L 369.05581,698.22223 L 372.68587,693.38216 L 363.40906,685.7187 L 363.00572,690.55878 L 358.97232,690.55878 L 356.14894,685.7187 L 353.32557,681.28197 L 353.32557,683.29867 L 354.13225,687.7354 L 348.08215,684.91202 L 344.85543,682.89533 L 344.85543,679.26527 L 340.82204,674.82853 L 337.99866,674.02185 L 334.77194,669.98846 L 331.14188,669.18178 z "
       id="path7316"
       transform="translate(-1126.643,-597.3521)" />
    <path
       style="fill:#ffffd0;fill-rule:evenodd;stroke:blue;stroke-width:1px;stroke-linecap:butt;stroke-linejoin:miter;stroke-opacity:1;fill-opacity:1"
       d="M 419.06993,626.02443 L 416.24656,633.28454 L 416.24656,638.12462 L 413.42318,641.35134 L 411.40648,648.20811 L 411.80982,656.27491 L 406.16306,663.13168 L 404.54971,668.3751 L 401.32299,667.97176 L 400.51631,664.74504 C 400.51631,664.74504 399.70963,672.00515 398.09627,672.00515 C 396.48291,672.00515 392.04618,676.84523 392.04618,676.84523 L 389.62614,682.08865 L 392.44952,685.31536 L 390.02948,691.36546 L 388.81946,696.60888 L 379.94599,699.02891 L 386.39942,703.06231 L 386.80276,709.11241 L 389.2228,716.37252 L 389.62614,721.2126 L 395.67623,718.79256 L 398.49961,713.95248 L 400.91965,705.88569 L 402.53301,697.41555 L 405.35639,690.55878 L 408.17976,686.12204 C 408.17976,686.12204 406.16306,681.68531 407.77642,679.66861 C 409.38978,677.65191 411.00314,674.42519 411.00314,674.42519 L 411.00314,671.60181 L 417.85992,666.76174 L 417.85992,659.50162 L 418.6666,653.45153 C 418.6666,653.45153 420.68329,649.41813 420.68329,647.40143 C 420.68329,645.38474 420.68329,641.35134 420.68329,641.35134 L 424.71669,636.10792 L 424.71669,631.67119 L 419.06993,626.02443 z "
       id="path7318"
       transform="translate(-1126.643,-597.3521)" />
    <path
       style="fill:#ffffd0;fill-rule:evenodd;stroke:blue;stroke-width:1px;stroke-linecap:butt;stroke-linejoin:miter;stroke-opacity:1;fill-opacity:1"
       d="M 449.32041,613.92424 L 448.91707,618.76432 L 452.14379,623.20105 L 451.33711,626.83111 L 450.53043,629.25115 L 448.11039,636.10792 L 445.69035,633.28454 C 445.69035,633.28454 444.88367,633.28454 444.88367,631.26785 C 444.88367,629.25115 444.88367,626.02443 444.88367,626.02443 L 449.72375,624.41107 L 456.17719,623.60439 L 456.17719,620.37767 L 452.95047,618.36098 L 453.35381,615.5376 L 449.32041,613.92424 z "
       id="path7322"
       transform="translate(-1126.643,-597.3521)" />
    <path
       style="fill:#ffffd0;fill-rule:evenodd;stroke:blue;stroke-width:1px;stroke-linecap:butt;stroke-linejoin:miter;stroke-opacity:1;fill-opacity:1"
       d="M 484.00762,669.98846 L 479.57089,670.3918 L 479.57089,674.02185 L 475.94083,672.00515 L 472.71411,672.81183 L 475.13415,678.86193 L 479.97423,678.45859 L 481.99093,676.03855 L 488.04102,674.82853 L 484.00762,669.98846 z "
       id="path7324"
       transform="translate(-1126.643,-597.3521)" />
    <path
       style="fill:#ffffd0;fill-rule:evenodd;stroke:blue;stroke-width:1px;stroke-linecap:butt;stroke-linejoin:miter;stroke-opacity:1;fill-opacity:1"
       d="M 494.09112,664.74504 L 490.05772,667.56842 L 487.63768,668.3751 L 492.8811,672.00515 L 495.30114,674.82853 L 498.52785,672.00515 L 498.93119,666.3584 L 494.09112,664.74504 z "
       id="path7326"
       transform="translate(-1126.643,-597.3521)" />
    <path
       style="fill:#ffffd0;fill-rule:evenodd;stroke:blue;stroke-width:1px;stroke-linecap:butt;stroke-linejoin:miter;stroke-opacity:1;fill-opacity:1"
       d="M 446.49703,672.00515 L 442.86698,678.45859 L 438.43024,673.61851 L 435.20352,678.86193 L 432.78348,679.26527 L 430.76679,689.34876 L 438.83358,696.20554 L 442.46364,699.83559 L 436.41354,705.48235 L 429.96011,703.46565 L 426.33005,699.43225 L 424.31335,697.01222 L 421.48997,700.64227 L 425.52337,706.69237 L 425.52337,711.53244 L 434.39684,717.1792 L 442.86698,718.79256 L 452.14379,724.43931 L 459.4039,725.64933 L 466.26068,734.11947 C 466.26068,734.11947 473.11745,740.97624 475.53749,740.97624 C 477.95753,740.97624 485.21764,745.81632 485.21764,745.81632 L 490.46106,751.46307 L 493.68778,748.6397 L 488.04102,745.00964 L 489.25104,742.18626 L 496.51115,741.78292 L 498.52785,736.13616 L 504.17461,735.73283 L 510.2247,734.92615 L 515.06478,736.13616 L 517.48482,734.11947 L 519.09818,739.36288 C 519.09818,739.36288 524.34159,739.76622 526.35829,739.36288 C 528.37499,738.95954 529.98835,737.74952 529.98835,737.74952 L 533.61841,726.85935 L 528.37499,726.45601 L 529.98835,722.01928 C 529.98835,722.01928 535.23176,723.22929 534.82842,721.61594 C 534.42509,720.00258 535.23176,717.98588 534.42509,715.96918 C 533.61841,713.95248 528.77833,707.09571 528.77833,707.09571 L 525.55161,700.23893 L 519.90486,691.36546 L 519.90486,680.07195 L 515.87146,676.84523 C 515.87146,676.84523 519.09818,675.63521 519.09818,674.02185 C 519.09818,672.40849 521.51822,670.79514 521.51822,670.79514 L 527.16497,676.84523 C 527.16497,676.84523 526.76163,669.98846 529.18167,669.98846 C 531.60171,669.98846 537.6518,677.65191 537.6518,677.65191 L 540.47518,682.89533 L 544.91192,676.03855 C 544.91192,676.03855 549.34865,683.70201 552.57537,683.70201 C 555.80209,683.70201 562.65886,682.89533 562.65886,682.89533 L 560.64216,676.84523 L 548.13863,679.26527 L 550.15533,686.92872 C 550.15533,686.92872 558.62547,687.7354 560.23883,687.33206 C 561.85218,686.92872 568.30562,687.33206 568.30562,687.33206 L 581.21249,686.52538 C 581.21249,686.52538 580.80915,681.68531 582.42251,681.28197 C 584.03587,680.87863 588.06926,674.02185 590.4893,674.02185 C 592.90934,674.02185 598.5561,670.3918 598.5561,670.3918 L 609.84961,673.21517 L 618.31974,673.21517 L 617.9164,665.95506 L 615.09302,660.3083 L 608.63959,658.29161 L 599.76611,656.67825 L 586.05257,657.88827 L 584.84255,665.14838 L 593.31268,665.95506 L 594.11936,668.3751 L 586.05257,669.18178 L 575.16239,669.98846 L 567.0956,672.00515 L 565.88558,677.24857 C 565.88558,677.24857 568.70896,680.07195 567.90228,682.49199 C 567.0956,684.91202 565.48224,686.12204 565.0789,688.94542 C 564.67556,691.7688 568.70896,694.59218 568.70896,694.59218 L 571.129,698.62557 L 565.88558,705.07901 C 565.88558,705.07901 560.64216,709.11241 560.64216,711.53244 C 560.64216,713.95248 553.78539,720.40592 553.78539,720.40592 L 550.15533,726.05267 C 550.15533,726.05267 548.13863,729.27939 548.13863,730.89275 C 548.13863,732.50611 545.7186,734.11947 545.7186,734.11947 L 548.54197,738.15286 L 548.54197,747.83302 L 548.54197,757.10983 L 541.6852,755.49647 L 541.28186,749.44637 L 538.45848,740.97624 L 536.44178,737.34618 L 537.24846,728.47271 L 540.87852,722.01928 L 537.24846,720.40592 L 535.23176,712.33912 L 527.16497,707.90239 L 522.72823,700.64227 L 518.2915,699.02891 C 518.2915,699.02891 521.51822,695.39886 519.50152,694.59218 C 517.48482,693.7855 513.04808,688.13874 513.04808,688.13874 L 507.40133,684.50868 L 505.78797,691.36546 L 509.41802,695.39886 L 504.17461,697.01222 L 500.14121,692.17214 L 496.10781,694.59218 L 499.73787,699.83559 C 499.73787,699.83559 504.57795,697.41555 504.57795,699.83559 C 504.57795,702.25563 503.77127,704.67567 503.77127,704.67567 L 500.14121,701.04561 L 494.8978,701.04561 L 491.26774,698.22223 L 487.23434,700.23893 L 486.42766,692.57548 L 484.8143,690.96212 L 479.97423,692.97882 C 479.97423,692.97882 477.15085,686.92872 475.53749,686.52538 C 473.92413,686.12204 471.90743,681.28197 471.90743,681.28197 L 468.27738,680.07195 L 463.4373,674.02185 L 460.21058,673.21517 L 446.49703,672.00515 z "
       id="path7328"
       transform="translate(-1126.643,-597.3521)" />
    <path
       style="fill:#ffffd0;fill-rule:evenodd;stroke:blue;stroke-width:1px;stroke-linecap:butt;stroke-linejoin:miter;stroke-opacity:1;fill-opacity:1"
       d="M 412.31496,503.05866 L 416.28908,505.04572 L 420.2632,508.68866 C 420.2632,508.68866 428.21144,505.70807 427.88027,507.03278 C 427.54909,508.35749 431.19203,510.01337 431.52321,511.66925 C 431.85439,513.32514 440.1338,519.28632 440.1338,519.28632 C 440.1338,519.28632 432.18556,522.59808 432.18556,521.27338 C 432.18556,519.94867 426.88674,517.29926 426.88674,517.29926 C 426.88674,517.29926 419.93203,516.30573 419.93203,518.62396 C 419.93203,520.9422 423.57497,523.92279 423.57497,523.92279 L 433.51027,524.25397 C 433.51027,524.25397 439.80263,527.56573 441.45851,527.56573 C 443.11439,527.56573 447.08851,533.85809 447.08851,533.85809 C 447.08851,533.85809 448.7444,539.15692 448.7444,540.8128 C 448.7444,542.46868 447.08851,548.42986 447.08851,548.42986 C 447.08851,548.42986 438.8091,547.10516 438.8091,548.42986 C 438.8091,549.75457 438.47792,553.39751 439.80263,553.39751 C 441.12733,553.39751 448.08204,553.39751 448.41322,554.72222 C 448.7444,556.04693 449.73793,559.68987 449.73793,559.68987 L 452.05616,567.63811 L 453.71205,574.26164 L 456.03028,579.56047 L 449.73793,583.53459 L 445.10145,584.8593 C 445.10145,584.8593 442.12086,584.19694 441.12733,585.85283 C 440.1338,587.50871 436.49086,588.50224 438.14674,589.49577 C 439.80263,590.4893 449.73793,597.44401 449.73793,597.44401 C 449.73793,597.44401 455.03675,602.41166 456.36146,602.41166 C 457.68617,602.41166 460.0044,607.37931 460.0044,609.0352 C 460.0044,610.69108 460.0044,616.65226 460.0044,616.65226 L 465.63441,621.28873 C 465.63441,621.28873 471.92676,620.2952 473.91382,620.95756 C 475.90088,621.61991 483.51795,621.61991 483.51795,621.61991 L 495.44031,619.96403 L 496.10266,623.93815 L 506.03796,623.60697 L 512.66149,626.58756 L 514.64855,620.95756 L 518.62267,623.93815 L 515.31091,630.2305 L 522.92797,630.56168 L 527.23327,633.87345 L 521.27209,633.87345 L 521.27209,638.8411 L 516.30444,638.17874 L 521.27209,644.80228 L 523.9215,648.44522 L 516.30444,646.78934 L 505.70678,645.13345 L 507.36267,648.11404 L 517.62914,652.08816 L 527.89562,654.4064 L 529.5515,651.75699 L 531.86974,660.69876 L 540.81151,665.33523 L 542.79857,662.35464 C 542.79857,662.35464 551.40917,671.29641 554.72093,671.29641 C 558.0327,671.29641 563.99388,670.63406 563.99388,670.63406 L 571.94212,664.67288 C 571.94212,664.67288 573.26683,662.68582 571.61094,660.69876 C 569.95506,658.7117 568.96153,653.74405 568.96153,653.74405 L 565.31859,650.1011 L 565.31859,645.79581 L 569.62388,648.11404 C 569.62388,648.11404 574.26036,648.44522 573.92918,647.12051 C 573.598,645.79581 573.598,636.85404 573.598,636.85404 L 567.30565,635.86051 L 561.67564,632.87992 L 564.65623,629.23697 L 567.30565,632.21756 L 563.99388,636.19168 L 556.04564,634.5358 L 553.39623,631.55521 L 557.03917,626.91874 C 557.03917,626.91874 564.32506,628.24344 564.65623,626.91874 C 564.98741,625.59403 570.61741,619.30167 570.61741,619.30167 L 579.22801,613.67167 L 589.49448,611.02226 L 593.4686,614.33402 L 600.75449,608.37284 C 600.75449,608.37284 608.04038,607.04814 607.7092,605.72343 C 607.37802,604.39872 607.7092,590.15813 607.7092,590.15813 C 607.7092,590.15813 605.05979,588.50224 603.73508,587.17753 C 602.41037,585.85283 600.09214,580.88518 600.09214,580.88518 L 595.78684,577.24223 L 586.51389,577.24223 C 586.51389,577.24223 587.17625,574.924 584.52683,574.59282 C 581.87742,574.26164 577.24095,571.28105 577.24095,571.28105 C 577.24095,571.28105 576.24742,569.29399 576.24742,567.96929 C 576.24742,566.64458 576.24742,560.6834 576.24742,559.35869 C 576.24742,558.03399 579.22801,551.74163 579.55918,550.41692 C 579.89036,549.09222 583.20213,544.78692 583.20213,544.78692 L 589.16331,538.82574 C 589.16331,538.82574 592.47507,539.81927 593.79978,538.49456 C 595.12449,537.16986 598.10508,530.8775 598.10508,530.8775 L 606.71567,533.85809 L 612.34567,533.85809 L 612.34567,528.22809 L 618.63803,528.22809 C 618.63803,528.22809 620.62509,524.25397 620.95627,522.92926 C 621.28744,521.60455 626.91745,517.96161 626.91745,517.96161 L 630.56039,517.96161 L 630.56039,524.58514 L 634.20333,528.22809 L 634.86569,534.85162 L 629.89804,538.82574 L 625.26156,544.78692 C 625.26156,544.78692 621.61862,542.13751 618.63803,541.14398 C 615.65744,540.15045 613.67038,537.16986 613.67038,537.16986 L 617.97568,529.55279 L 619.96274,524.25397 L 627.91098,515.97455 L 626.25509,510.01337 L 621.61862,506.03925 C 621.61862,506.03925 625.26156,502.39631 625.26156,500.74042 C 625.26156,499.08454 625.26156,490.14277 625.26156,490.14277 C 625.26156,490.14277 622.61215,484.18159 622.28097,482.85688 C 621.9498,481.53218 620.29391,475.571 620.29391,475.571 L 616.98215,469.60982 C 616.98215,469.60982 612.34567,465.30452 614.00156,463.97981 C 615.65744,462.6551 614.66391,459.34334 616.98215,457.0251 C 619.30038,454.70686 619.96274,448.08333 619.96274,448.08333 C 619.96274,448.08333 626.25509,444.10921 626.25509,442.45333 C 626.25509,440.79744 627.5798,438.47921 627.5798,438.47921 L 615.32626,427.2192 C 615.32626,427.2192 607.37802,427.55038 606.05332,427.55038 C 604.72861,427.55038 601.08567,425.56332 601.08567,425.56332 L 597.7739,425.56332 L 592.1439,421.5892 C 592.1439,421.5892 590.15684,417.61508 588.83213,417.61508 C 587.50742,417.61508 580.88389,421.5892 580.88389,421.5892 L 573.92918,424.23861 L 567.30565,428.87508 C 567.30565,428.87508 564.98741,430.19979 563.00035,431.19332 C 561.01329,432.18685 558.0327,436.82332 558.0327,436.82332 L 551.40917,441.4598 L 545.44799,444.10921 L 537.83092,449.40804 L 531.86974,454.70686 C 531.86974,454.70686 533.19445,459.67451 535.18151,459.67451 C 537.16857,459.67451 540.81151,459.67451 542.13622,459.01216 C 543.46093,458.34981 546.11034,454.04451 546.11034,454.04451 L 553.06505,454.04451 C 553.06505,454.04451 556.04564,451.06392 556.37682,449.40804 C 556.70799,447.75215 560.68211,445.43392 560.68211,445.43392 L 566.64329,450.73274 L 570.94859,454.70686 L 569.62388,459.67451 L 562.00682,460.00569 C 562.00682,460.00569 557.70152,457.0251 559.02623,456.03157 C 560.35094,455.03804 562.338,453.05098 562.338,453.05098 L 559.68858,451.72627 L 556.04564,455.03804 L 555.05211,459.67451 L 557.70152,466.62922 L 557.70152,469.94099 L 560.35094,476.8957 L 557.70152,484.51277 L 560.68211,492.46101 L 562.00682,496.7663 L 565.98094,503.72101 L 565.98094,510.67572 C 565.98094,510.67572 562.338,514.98102 562.338,516.30573 C 562.338,517.63043 561.34447,523.59161 561.34447,523.59161 L 554.72093,516.30573 L 551.40917,514.64984 L 548.42858,509.01984 L 554.38976,508.68866 L 550.41564,505.3769 L 561.01329,504.71454 L 557.03917,500.07807 L 558.36388,496.7663 L 555.71446,491.46748 L 555.71446,485.17512 L 552.07152,477.55806 C 552.07152,477.55806 552.4027,472.59041 552.4027,471.2657 C 552.4027,469.94099 552.73387,466.9604 552.73387,466.9604 L 547.43505,462.6551 L 539.15563,461.99275 L 542.79857,468.94746 L 545.77916,476.23335 L 544.78563,482.85688 L 540.14916,486.831 C 540.14916,486.831 534.51915,487.82453 534.18798,489.14924 C 533.8568,490.47395 533.8568,499.74689 533.8568,499.74689 L 536.17504,506.03925 L 532.53209,512.00043 L 528.2268,520.27985 C 528.2268,520.27985 529.88268,516.6369 528.55797,515.64337 C 527.23327,514.64984 523.9215,508.35749 523.9215,508.35749 L 517.29797,510.01337 L 510.67443,510.01337 C 510.67443,510.01337 508.3562,504.38337 510.01208,504.38337 C 511.66796,504.38337 520.27856,504.05219 520.27856,504.05219 C 520.27856,504.05219 524.25268,503.05866 524.25268,501.73395 C 524.25268,500.40925 524.58385,497.75983 523.25915,497.09748 C 521.93444,496.43513 521.27209,494.44807 519.28503,494.44807 C 517.29797,494.44807 513.32385,494.77924 513.32385,494.77924 C 513.32385,494.77924 510.34326,497.09748 508.68737,496.7663 C 507.03149,496.43513 505.37561,493.12336 505.37561,493.12336 L 511.00561,490.14277 L 511.00561,486.49983 L 513.9862,487.82453 L 518.62267,490.14277 L 519.28503,481.86335 L 516.63561,476.23335 C 516.63561,476.23335 511.66796,471.59688 511.66796,470.27217 C 511.66796,468.94746 513.32385,465.30452 513.32385,465.30452 L 519.94738,467.95393 L 521.60326,461.3304 L 525.24621,458.34981 L 525.57738,451.06392 C 525.57738,451.06392 520.60973,450.73274 519.28503,452.7198 C 517.96032,454.70686 513.9862,457.68745 513.9862,457.68745 L 506.03796,458.01863 C 506.03796,458.01863 505.04443,454.70686 503.71972,454.70686 C 502.39502,454.70686 497.42737,457.0251 495.77148,457.0251 C 494.1156,457.0251 489.47913,454.37569 489.47913,454.37569 L 480.53736,453.71333 L 473.58265,452.38863 L 469.60853,449.40804 L 463.97852,444.77156 L 460.99793,442.45333 L 461.66029,450.40157 L 468.28382,456.03157 C 468.28382,456.03157 475.23853,456.69392 475.23853,458.01863 C 475.23853,459.34334 485.50501,458.68098 485.50501,458.68098 L 490.14148,461.66157 L 493.78442,464.64216 L 495.10913,476.56453 L 492.12854,479.21394 L 482.52442,479.54512 L 478.21912,483.18806 L 472.58912,477.88923 C 472.58912,477.88923 476.56324,484.51277 476.23206,486.831 C 475.90088,489.14924 475.56971,495.11042 475.56971,495.11042 L 473.91382,499.08454 L 466.95911,500.07807 L 465.96558,494.44807 L 463.64735,491.1363 L 463.31617,504.38337 L 458.01734,504.38337 C 458.01734,504.38337 456.36146,497.75983 455.69911,500.07807 C 455.03675,502.39631 451.06263,504.05219 451.06263,504.05219 C 451.06263,504.05219 450.40028,500.40925 449.07557,500.40925 C 447.75087,500.40925 443.77675,500.40925 443.77675,500.40925 C 443.77675,500.40925 440.79616,505.04572 439.47145,504.71454 C 438.14674,504.38337 430.86086,504.05219 430.86086,504.05219 C 430.86086,504.05219 426.55556,502.72748 425.23085,502.72748 C 423.90615,502.72748 419.93203,500.07807 419.93203,500.07807 C 419.93203,500.07807 418.93849,502.39631 416.62026,502.39631 C 414.30202,502.39631 410.99025,502.72748 412.31496,503.05866 z "
       id="path8215"
       transform="translate(-1126.643,-597.3521)" />
    <path
       style="fill:#ffffd0;fill-rule:evenodd;stroke:blue;stroke-width:1px;stroke-linecap:butt;stroke-linejoin:miter;stroke-opacity:1;fill-opacity:1"
       d="M 640.49569,521.27338 L 645.46334,518.29279 L 648.11275,521.93573 L 649.10628,528.89044 L 645.79452,533.52691 L 643.47628,529.22162 L 640.16451,526.24103 L 640.49569,521.27338 z "
       id="path8217"
       transform="translate(-1126.643,-597.3521)" />
    <path
       style="fill:#ffffd0;fill-rule:evenodd;stroke:blue;stroke-width:1px;stroke-linecap:butt;stroke-linejoin:miter;stroke-opacity:1;fill-opacity:1"
       d="M 523.59032,493.78571 L 528.88915,493.78571 L 530.21386,495.77277 L 533.52562,498.09101 L 531.53856,501.40278 L 527.23327,500.40925 L 525.24621,497.09748 L 523.59032,493.78571 z "
       id="path8219"
       transform="translate(-1126.643,-597.3521)" />
    <path
       style="fill:#ffffd0;fill-rule:evenodd;stroke:blue;stroke-width:1px;stroke-linecap:butt;stroke-linejoin:miter;stroke-opacity:1;fill-opacity:1"
       d="M 892.65645,600.04059 C 893.37808,600.221 895.72338,604.18996 895.72338,604.18996 C 895.72338,604.18996 898.06867,610.50423 898.97071,610.50423 C 899.87275,610.50423 905.64579,613.93197 905.64579,613.93197 L 907.99109,617.17931 L 913.0425,619.88542 L 915.20739,617.72053 C 915.20739,617.72053 918.63513,623.49357 919.35676,623.67398 C 920.07839,623.85439 924.04736,626.74091 924.04736,626.74091 L 928.73795,630.70987 L 934.6914,631.79232 C 934.6914,631.79232 938.84077,634.49843 939.20159,635.94169 C 939.5624,637.38495 937.57792,648.75062 937.57792,648.75062 L 936.85629,653.62163 C 936.85629,653.62163 934.87181,657.771 934.51099,658.85345 C 934.15018,659.93589 931.62447,665.16771 931.62447,665.16771 C 931.62447,665.16771 929.63999,667.69341 927.83592,667.3326 C 926.03184,666.97178 925.85143,663.36363 924.04736,663.36363 C 922.24328,663.36363 915.02698,663.36363 915.02698,663.36363 L 909.61475,660.47711 L 904.56334,657.22978 L 899.51193,653.80203 L 893.55848,651.99796 L 890.13074,651.81755 L 884.3577,645.50329 L 881.11037,644.06003 L 882.0124,637.02413 L 884.3577,633.95721 L 884.17729,625.29765 L 882.55363,621.32868 L 885.44015,614.29279 L 887.24422,608.51975 C 887.24422,608.51975 887.78544,603.46833 888.50707,603.46833 C 889.2287,603.46833 893.19767,599.86018 892.65645,600.04059 z "
       id="path9995"
       transform="translate(-1126.643,-597.3521)" />
    <path
       style="fill:#f7d3aa;fill-rule:evenodd;stroke:blue;stroke-width:1px;stroke-linecap:butt;stroke-linejoin:miter;stroke-opacity:1;fill-opacity:1"
       d="M 976.91192,416.82902 L 957.01554,418.81865 L 952.04145,412.84974 L 942.09326,412.84974 L 924.18653,411.85492 L 915.23316,410.8601 L 902.30052,413.84456 L 898.32124,418.81865 L 888.37306,412.84974 L 878.42487,412.84974 L 881.40933,431.7513 L 893.34715,438.71503 L 889.36788,444.68394 L 880.41451,449.65803 L 868.47668,443.68912 L 860.51813,435.73057 L 847.58549,450.65285 L 837.63731,459.60622 L 835.64767,467.56477 L 826.6943,479.50259 L 822.71503,498.40415 L 821.72021,508.35233 L 830.67358,518.30052 L 832.66321,531.23316 L 838.63212,541.18135 L 837.63731,553.11917 L 829.67876,564.06218 L 825.69948,578.98446 L 821.72021,583.95855 L 804.80829,581.96891 L 791.87565,572.02073 L 780.93264,572.02073 L 763.02591,572.02073 L 746.11399,579.97927 L 740.14508,580.97409 L 723.23316,589.92746 L 706.32124,589.92746 L 695.37824,583.95855 L 682.4456,582.96373 L 669.51295,576 L 662.54922,580.97409 L 651.60622,580.97409 L 657.57513,570.03109 C 657.57513,570.03109 654.59067,573.01554 661.5544,572.02073 C 668.51813,571.02591 673.49223,568.04145 673.49223,568.04145 L 667.52332,556.10363 L 665.53368,550.13472 L 664.53886,542.17617 L 677.4715,529.24352 C 677.4715,529.24352 684.43523,523.27461 683.44041,519.29534 C 682.4456,515.31606 675.48187,507.35751 675.48187,507.35751 L 669.51295,503.37824 L 663.54404,497.40933 L 665.53368,491.44041 L 660.55959,476.51813 L 653.59585,476.51813 L 647.62694,463.58549 L 643.64767,449.65803 L 638.67358,441.69948 L 636.68394,430.75648 L 624.74611,417.82383 L 615.79275,403.89637 L 616.78756,394.94301 L 609.82383,378.03109 L 627.73057,388.97409 L 635.68912,393.94819 L 637.67876,399.9171 L 643.64767,399.9171 L 653.59585,392.95337 L 655.58549,385.98964 C 655.58549,385.98964 650.6114,387.97927 648.62176,383.00518 C 646.63212,378.03109 644.64249,370.07254 644.64249,370.07254 L 635.68912,363.10881 L 624.74611,356.14508 L 634.6943,348.18653 L 640.66321,344.20725 C 640.66321,344.20725 651.60622,346.19689 651.60622,351.17098 C 651.60622,356.14508 663.54404,347.19171 663.54404,347.19171 L 665.53368,332.26943 L 666.5285,322.32124 L 664.53886,316.35233 L 662.54922,308.39378 L 651.60622,297.45078 L 651.60622,305.40933 L 643.64767,306.40415 L 635.68912,294.46632 L 628.72539,285.51295 L 630.71503,282.5285 L 628.72539,278.54922 L 627.73057,269.59585 L 619.77202,263.62694 L 615.79275,253.67876 L 606.83938,248.70466 C 606.83938,248.70466 595.89637,247.70984 595.89637,242.73575 C 595.89637,237.76166 595.89637,225.82383 595.89637,225.82383 C 595.89637,225.82383 591.9171,218.8601 586.94301,214.88083 C 581.96891,210.90155 576.99482,200.95337 576.99482,200.95337 L 576.99482,189.01554 L 568.04145,184.04145 L 567.04663,175.08808 L 564.06218,168.12435 L 567.04663,160.1658 L 572.02073,154.19689 C 572.02073,154.19689 571.02591,151.21244 567.04663,150.21762 C 563.06736,149.2228 562.07254,147.23316 562.07254,147.23316 L 569.03627,140.26943 L 566.05181,134.30052 L 558.09326,123.35751 L 554.11399,131.31606 L 553.11917,144.2487 L 544.1658,137.28497 L 537.20207,122.36269 L 544.1658,111.41969 L 539.19171,98.487047 L 540.18653,87.544041 L 534.21762,79.585492 L 528.2487,79.585492 L 519.29534,76.601036 L 518.30052,90.528497 L 524.26943,101.4715 L 527.25389,91.523316 L 527.25389,76.601036 C 527.25389,76.601036 541.18135,67.647668 537.20207,67.647668 C 533.2228,67.647668 526.25907,65.658031 526.25907,65.658031 L 519.29534,66.65285 L 515.31606,55.709845 C 515.31606,55.709845 504.37306,53.720207 505.36788,57.699482 C 506.36269,61.678756 510.34197,70.632124 510.34197,70.632124 L 518.30052,57.699482 L 526.25907,43.772021 C 526.25907,43.772021 519.29534,47.751295 517.3057,43.772021 C 515.31606,39.792746 512.33161,30.839378 512.33161,30.839378 L 522.27979,22.880829 L 522.27979,10.943005 L 511.33679,14.92228 L 505.36788,29.84456 L 500.39378,17.906736 L 517.3057,7.9585492 L 527.25389,4.9740933 L 515.31606,0.99481865 L 512.33161,5.9689119 L 505.36788,13.927461 L 498.40415,8.9533679 L 491.44041,4.9740933 L 497.40933,-0.99481865 L 496.41451,-2.984456 L 978.90155,-3.9792746"
       id="path10882"
       transform="translate(-1126.643,-597.3521)" />
    <path
       style="fill:#f7d3aa;fill-rule:evenodd;stroke:blue;stroke-width:1px;stroke-linecap:butt;stroke-linejoin:miter;stroke-opacity:1;fill-opacity:1"
       d="M 634.39461,463.85189 L 636.60069,463.76864 C 636.60069,463.76864 638.14079,464.60112 638.30728,464.80924 C 638.47378,465.01737 640.09712,466.9737 640.09712,466.9737 C 640.09712,466.9737 641.76209,469.17979 641.76209,469.47116 C 641.76209,469.76253 641.22098,471.13612 640.67986,471.17775 C 640.13875,471.21937 636.85043,470.71988 636.80881,470.55339 C 636.76719,470.38689 636.93368,468.38893 636.68394,468.13918 C 636.43419,467.88944 634.76922,467.05695 634.51948,466.59909 C 634.26973,466.14122 634.06161,464.726 634.06161,464.726 L 634.39461,463.85189 z "
       id="path11769"
       transform="translate(-1126.643,-597.3521)" />
    <path
       style="fill:none;fill-rule:evenodd;stroke:#1821de;stroke-width:1px;stroke-linecap:butt;stroke-linejoin:miter;stroke-opacity:1"
       d="M 224.67309,667.8648 L 219.62426,668.70627 L 212.05101,672.91363 L 204.47776,676.27952 L 191.0142,677.121 L 176.70917,677.96247 L 169.9774,677.96247 L 158.19678,676.27952 L 147.25765,678.80394 L 143.05028,670.38922"
       id="path13541"
       transform="translate(-1126.643,-597.3521)" />
    <path
       style="fill:none;fill-rule:evenodd;stroke:#1821de;stroke-width:1px;stroke-linecap:butt;stroke-linejoin:miter;stroke-opacity:1"
       d="M 233.92929,576.9858 L 223.83162,590.44935 L 208.68512,600.54702 L 182.59948,599.70555 L 171.66034,598.0226 L 155.67237,594.65671 L 151.46501,589.60788 L 144.73323,592.1323 L 139.6844,590.44935"
       id="path13543"
       transform="translate(-1126.643,-597.3521)" />
    <path
       style="fill:none;fill-rule:evenodd;stroke:#1821de;stroke-width:1px;stroke-linecap:butt;stroke-linejoin:miter;stroke-opacity:1"
       d="M 213.73395,502.93624 L 210.36806,507.1436 L 195.22156,507.1436 L 185.1239,507.1436 L 173.34329,499.57035 C 173.34329,499.57035 160.7212,498.72888 157.35531,500.41182 C 153.98942,502.09477 152.30648,512.19243 152.30648,512.19243 L 138.84292,521.44863 L 123.69642,529.86335 L 110.23287,534.07071 L 104.34256,538.27807 L 98.452254,537.4366"
       id="path13545"
       transform="translate(-1126.643,-597.3521)" />
    <path
       style="fill:none;fill-rule:evenodd;stroke:#1821de;stroke-width:1px;stroke-linecap:butt;stroke-linejoin:miter;stroke-opacity:1"
       d="M 234.77076,465.91146 L 223.83162,460.86263 L 216.25837,460.86263 L 207.00218,457.49674 L 196.90451,451.60643 L 178.39212,450.76496 L 168.29445,454.97232 L 158.19678,464.22851 L 146.41617,458.33821 L 139.6844,459.17968 L 130.4282,463.38704 L 123.69642,463.38704 L 122.01348,465.91146 L 117.80612,464.22851 L 109.39139,468.43588"
       id="path13547"
       transform="translate(-1126.643,-597.3521)" />
    <path
       style="fill:#9ec7f3;fill-rule:evenodd;stroke:blue;stroke-width:1px;stroke-linecap:butt;stroke-linejoin:miter;stroke-opacity:1;fill-opacity:1"
       d="M 79.939865,412.05723 L 87.513115,417.94754 L 89.196059,421.31343 L 93.403421,414.58165 L 89.196059,406.16693 L 79.939865,412.05723 z "
       id="path13549"
       transform="translate(-1126.643,-597.3521)" />
    <path
       style="fill:none;fill-rule:evenodd;stroke:#1821de;stroke-width:1px;stroke-linecap:butt;stroke-linejoin:miter;stroke-opacity:1"
       d="M 221.3072,430.56962 L 204.47776,420.47196 L 192.69715,411.21576 L 183.44095,414.58165 L 177.55065,407.0084 L 171.66034,402.80104 C 171.66034,402.80104 169.9774,401.1181 169.9774,397.75221 C 169.9774,394.38632 169.13592,391.8619 169.13592,391.8619 L 168.29445,384.28865 L 151.46501,372.50804 L 140.52587,371.66657 L 133.79409,369.98362 L 116.96464,369.98362 L 106.0255,373.34951 L 97.610782,373.34951"
       id="path13551"
       transform="translate(-1126.643,-597.3521)" />
    <path
       style="fill:none;fill-rule:evenodd;stroke:#1821de;stroke-width:1px;stroke-linecap:butt;stroke-linejoin:miter;stroke-opacity:1"
       d="M 243.18548,479.37502 L 253.28315,479.37502 L 266.74671,460.86263 L 268.42965,445.71612 L 266.74671,442.35024 L 270.95407,435.61846 L 274.31996,429.72815 L 273.47848,424.67932 L 262.53934,418.78901 L 257.49051,417.94754 L 246.55137,408.69135 L 258.33198,407.0084 L 265.06376,404.48398 L 265.90523,394.38632 L 260.8564,381.76423 L 255.80757,378.39834 L 260.8564,365.77626 L 276.84437,364.09332 L 287.78351,366.61773 L 297.88118,358.20301 L 307.13737,350.62976 L 324.80829,345.58093 L 336.5889,339.69062 L 336.5889,324.54412 C 336.5889,324.54412 333.22301,319.49529 336.5889,318.65381 C 339.95479,317.81234 345.8451,316.1294 345.8451,316.1294"
       id="path13553"
       transform="translate(-1126.643,-597.3521)" />
  </g>
</svg>
